<svg xmlns="http://www.w3.org/2000/svg" xmlns:xlink="http://www.w3.org/1999/xlink" viewBox="0 0 352.54 230.84"><defs><style>.cls-1{isolation:isolate;}.cls-2{fill:#003770;}.cls-3{fill:url(#linear-gradient);}.cls-4{fill:url(#linear-gradient-2);}.cls-5{fill:url(#linear-gradient-3);}.cls-6{fill:url(#linear-gradient-4);}.cls-7{fill:url(#linear-gradient-5);}.cls-8{fill:#9d9d9c;mix-blend-mode:multiply;}.cls-9{fill:url(#linear-gradient-6);}.cls-10{fill:#009fe3;opacity:0.4;}.cls-11{fill:#0095db;}.cls-12{fill:url(#linear-gradient-7);}.cls-13{fill:url(#linear-gradient-8);}.cls-14{fill:url(#linear-gradient-9);}.cls-15{fill:url(#linear-gradient-10);}.cls-16{fill:url(#linear-gradient-11);}.cls-17{fill:url(#linear-gradient-12);}.cls-18{fill:url(#linear-gradient-13);}.cls-19{fill:url(#linear-gradient-14);}.cls-20{fill:url(#linear-gradient-15);}.cls-21{fill:url(#linear-gradient-16);}.cls-22{fill:url(#linear-gradient-17);}.cls-23{fill:url(#linear-gradient-18);}.cls-24{fill:url(#linear-gradient-19);}.cls-25{fill:url(#linear-gradient-20);}.cls-26{fill:url(#linear-gradient-21);}.cls-27{fill:url(#linear-gradient-22);}.cls-28{fill:url(#linear-gradient-23);}.cls-29{fill:url(#linear-gradient-24);}.cls-30{fill:url(#linear-gradient-25);}.cls-31{fill:url(#linear-gradient-26);}.cls-32{fill:url(#linear-gradient-27);}.cls-33{fill:url(#linear-gradient-28);}.cls-34{fill:url(#linear-gradient-29);}.cls-35{fill:url(#linear-gradient-30);}.cls-36{fill:url(#linear-gradient-31);}.cls-37{fill:url(#linear-gradient-32);}.cls-38{fill:url(#linear-gradient-33);}.cls-39{fill:url(#linear-gradient-34);}.cls-40{fill:url(#linear-gradient-35);}.cls-41{fill:url(#linear-gradient-36);}.cls-42{fill:url(#linear-gradient-37);}.cls-43{fill:url(#linear-gradient-38);}.cls-44{fill:url(#linear-gradient-39);}.cls-45{fill:url(#linear-gradient-40);}.cls-46{fill:url(#linear-gradient-41);}.cls-47{fill:url(#linear-gradient-42);}.cls-48{fill:url(#linear-gradient-43);}.cls-49{fill:url(#linear-gradient-44);}.cls-50{fill:url(#linear-gradient-45);}.cls-51{fill:url(#linear-gradient-46);}.cls-52{fill:url(#linear-gradient-47);}.cls-53{fill:url(#linear-gradient-48);}.cls-54{fill:url(#linear-gradient-49);}.cls-55{fill:url(#linear-gradient-50);}.cls-56{fill:url(#linear-gradient-51);}.cls-57{fill:url(#linear-gradient-52);}.cls-58{fill:url(#linear-gradient-53);}.cls-59{fill:url(#linear-gradient-54);}.cls-60{fill:url(#linear-gradient-55);}.cls-61{fill:url(#linear-gradient-56);}.cls-62{fill:url(#linear-gradient-57);}.cls-63{fill:url(#linear-gradient-58);}.cls-64{fill:url(#linear-gradient-59);}.cls-65{fill:url(#linear-gradient-60);}.cls-66{fill:url(#linear-gradient-61);}.cls-67{fill:url(#linear-gradient-62);}.cls-68{fill:url(#linear-gradient-63);}.cls-69{fill:url(#linear-gradient-64);}.cls-70{fill:url(#linear-gradient-65);}.cls-71{fill:url(#linear-gradient-66);}.cls-72{fill:url(#linear-gradient-67);}.cls-73{fill:url(#linear-gradient-68);}.cls-74{fill:url(#linear-gradient-69);}.cls-75{fill:url(#linear-gradient-70);}.cls-76{fill:url(#linear-gradient-71);}.cls-77{fill:url(#linear-gradient-72);}.cls-78{fill:url(#linear-gradient-73);}.cls-79{fill:url(#linear-gradient-74);}.cls-80{fill:url(#linear-gradient-75);}.cls-81{fill:url(#linear-gradient-76);}.cls-82{fill:url(#linear-gradient-77);}.cls-83{fill:url(#linear-gradient-78);}.cls-84{fill:url(#linear-gradient-79);}.cls-85{fill:url(#linear-gradient-80);}.cls-86{fill:url(#linear-gradient-81);}.cls-87{fill:url(#linear-gradient-82);}.cls-88{fill:url(#linear-gradient-83);}.cls-89{fill:url(#linear-gradient-84);}.cls-90{fill:url(#linear-gradient-85);}.cls-91{fill:url(#linear-gradient-86);}.cls-92{fill:url(#linear-gradient-87);}.cls-93{fill:url(#linear-gradient-88);}.cls-94{fill:url(#linear-gradient-89);}.cls-95{fill:url(#linear-gradient-90);}.cls-96{fill:url(#linear-gradient-91);}.cls-97{fill:url(#linear-gradient-92);}.cls-98{fill:url(#linear-gradient-93);}.cls-99{fill:url(#linear-gradient-94);}.cls-100{fill:url(#linear-gradient-95);}.cls-101{fill:url(#linear-gradient-96);}.cls-102{fill:url(#linear-gradient-97);}.cls-103{fill:url(#linear-gradient-98);}.cls-104{fill:url(#linear-gradient-99);}.cls-105{fill:url(#linear-gradient-100);}.cls-106{fill:url(#linear-gradient-101);}.cls-107{fill:url(#linear-gradient-102);}.cls-108{fill:url(#linear-gradient-103);}.cls-109{fill:url(#linear-gradient-104);}.cls-110{fill:url(#linear-gradient-105);}.cls-111{fill:url(#linear-gradient-106);}.cls-112{fill:url(#linear-gradient-107);}.cls-113{fill:url(#linear-gradient-108);}.cls-114{fill:url(#linear-gradient-109);}.cls-115{fill:url(#linear-gradient-110);}.cls-116{fill:url(#linear-gradient-111);}.cls-117{fill:url(#linear-gradient-112);}.cls-118{fill:url(#linear-gradient-113);}.cls-119{fill:url(#linear-gradient-114);}.cls-120{fill:url(#linear-gradient-115);}.cls-121{fill:url(#linear-gradient-116);}.cls-122{fill:url(#linear-gradient-117);}.cls-123{fill:url(#linear-gradient-118);}.cls-124{fill:url(#linear-gradient-119);}.cls-125{fill:url(#linear-gradient-120);}.cls-126{fill:url(#linear-gradient-121);}.cls-127{fill:url(#linear-gradient-122);}.cls-128{fill:url(#linear-gradient-123);}.cls-129{fill:url(#linear-gradient-124);}.cls-130{fill:url(#linear-gradient-125);}.cls-131{fill:url(#linear-gradient-126);}.cls-132{fill:url(#linear-gradient-127);}.cls-133{fill:url(#linear-gradient-128);}.cls-134{fill:url(#linear-gradient-129);}.cls-135{fill:url(#linear-gradient-130);}.cls-136{fill:url(#linear-gradient-131);}.cls-137{fill:url(#linear-gradient-132);}.cls-138{fill:url(#linear-gradient-133);}.cls-139{fill:url(#linear-gradient-134);}.cls-140{fill:url(#linear-gradient-135);}.cls-141{fill:url(#linear-gradient-136);}.cls-142{fill:url(#linear-gradient-137);}.cls-143{fill:url(#linear-gradient-138);}.cls-144{fill:url(#linear-gradient-139);}.cls-145{fill:url(#linear-gradient-140);}.cls-146{fill:url(#linear-gradient-141);}.cls-147{fill:url(#linear-gradient-142);}.cls-148{fill:url(#linear-gradient-143);}.cls-149{fill:url(#linear-gradient-144);}.cls-150{fill:url(#linear-gradient-145);}.cls-151{fill:url(#linear-gradient-146);}.cls-152{fill:url(#linear-gradient-147);}.cls-153{fill:url(#linear-gradient-148);}.cls-154{fill:url(#linear-gradient-149);}.cls-155{fill:url(#linear-gradient-150);}.cls-156{fill:url(#linear-gradient-151);}.cls-157{fill:url(#linear-gradient-152);}.cls-158{fill:url(#linear-gradient-153);}.cls-159{fill:url(#linear-gradient-154);}.cls-160{fill:url(#linear-gradient-155);}.cls-161{fill:url(#linear-gradient-156);}.cls-162{fill:url(#linear-gradient-157);}.cls-163{fill:url(#linear-gradient-158);}.cls-164{fill:url(#linear-gradient-159);}.cls-165{fill:url(#linear-gradient-160);}.cls-166{fill:url(#linear-gradient-161);}.cls-167{fill:url(#linear-gradient-162);}.cls-168{fill:url(#linear-gradient-163);}.cls-169{fill:url(#linear-gradient-164);}.cls-170{fill:url(#linear-gradient-165);}.cls-171{fill:url(#linear-gradient-166);}.cls-172{fill:url(#linear-gradient-167);}.cls-173{fill:url(#linear-gradient-168);}.cls-174{fill:url(#linear-gradient-169);}.cls-175{fill:url(#linear-gradient-170);}</style><linearGradient id="linear-gradient" x1="35.03" y1="135.02" x2="35.03" y2="209.48" gradientUnits="userSpaceOnUse"><stop offset="0" stop-color="#0069b4"/><stop offset="0.87" stop-color="#0d1340"/><stop offset="1" stop-color="#0f062f"/></linearGradient><linearGradient id="linear-gradient-2" x1="114.04" y1="136.45" x2="114.04" y2="208.05" xlink:href="#linear-gradient"/><linearGradient id="linear-gradient-3" x1="180.97" y1="136.45" x2="180.97" y2="208.05" gradientUnits="userSpaceOnUse"><stop offset="0" stop-color="#e30613"/><stop offset="1" stop-color="#ae0f0a"/></linearGradient><linearGradient id="linear-gradient-4" x1="243.41" y1="135.22" x2="243.41" y2="209.28" xlink:href="#linear-gradient-3"/><linearGradient id="linear-gradient-5" x1="320.47" y1="135.22" x2="320.47" y2="209.28" xlink:href="#linear-gradient-3"/><linearGradient id="linear-gradient-6" x1="53.53" y1="166.08" x2="53.53" y2="180.77" xlink:href="#linear-gradient-3"/><linearGradient id="linear-gradient-7" x1="175.99" y1="125.34" x2="176.08" y2="125.34" xlink:href="#linear-gradient"/><linearGradient id="linear-gradient-8" x1="116.57" y1="37.56" x2="123.72" y2="37.56" xlink:href="#linear-gradient"/><linearGradient id="linear-gradient-9" x1="127.95" y1="22.06" x2="134.48" y2="22.06" xlink:href="#linear-gradient"/><linearGradient id="linear-gradient-10" x1="115.55" y1="46.82" x2="116.13" y2="46.82" xlink:href="#linear-gradient"/><linearGradient id="linear-gradient-11" x1="116.41" y1="83.2" x2="117.34" y2="83.2" xlink:href="#linear-gradient"/><linearGradient id="linear-gradient-12" x1="113.89" y1="51.88" x2="115.8" y2="51.88" xlink:href="#linear-gradient"/><linearGradient id="linear-gradient-13" x1="115.17" y1="78.83" x2="115.86" y2="78.83" xlink:href="#linear-gradient"/><linearGradient id="linear-gradient-14" x1="175.75" y1="125.34" x2="175.99" y2="125.34" xlink:href="#linear-gradient"/><linearGradient id="linear-gradient-15" x1="153.18" y1="121.4" x2="155.23" y2="121.4" xlink:href="#linear-gradient"/><linearGradient id="linear-gradient-16" x1="172.3" y1="125.29" x2="175.78" y2="125.29" xlink:href="#linear-gradient"/><linearGradient id="linear-gradient-17" x1="116.78" y1="88.01" x2="121.43" y2="88.01" xlink:href="#linear-gradient"/><linearGradient id="linear-gradient-18" x1="149.36" y1="119.96" x2="152.02" y2="119.96" xlink:href="#linear-gradient"/><linearGradient id="linear-gradient-19" x1="131.5" y1="108.43" x2="136.41" y2="108.43" xlink:href="#linear-gradient"/><linearGradient id="linear-gradient-20" x1="174.39" y1="0.01" x2="175.27" y2="0.01" xlink:href="#linear-gradient"/><linearGradient id="linear-gradient-21" x1="162.52" y1="0.75" x2="173.76" y2="0.75" xlink:href="#linear-gradient"/><linearGradient id="linear-gradient-22" x1="149.81" y1="5.02" x2="155.68" y2="5.02" xlink:href="#linear-gradient"/><linearGradient id="linear-gradient-23" x1="130.56" y1="12.19" x2="154.6" y2="12.19" xlink:href="#linear-gradient"/><linearGradient id="linear-gradient-24" x1="157.44" y1="1.84" x2="173.27" y2="1.84" xlink:href="#linear-gradient"/><linearGradient id="linear-gradient-25" x1="156.51" y1="4.01" x2="167.18" y2="4.01" xlink:href="#linear-gradient"/><linearGradient id="linear-gradient-26" x1="154.94" y1="123.46" x2="173.78" y2="123.46" xlink:href="#linear-gradient"/><linearGradient id="linear-gradient-27" x1="132.56" y1="113.21" x2="150.72" y2="113.21" xlink:href="#linear-gradient"/><linearGradient id="linear-gradient-28" x1="151.89" y1="119.63" x2="153.35" y2="119.63" xlink:href="#linear-gradient"/><linearGradient id="linear-gradient-29" x1="114.24" y1="64.76" x2="115.79" y2="64.76" xlink:href="#linear-gradient"/><linearGradient id="linear-gradient-30" x1="117.23" y1="35.13" x2="133.66" y2="35.13" xlink:href="#linear-gradient"/><linearGradient id="linear-gradient-31" x1="116.93" y1="50.55" x2="135.12" y2="50.55" xlink:href="#linear-gradient"/><linearGradient id="linear-gradient-32" x1="132.54" y1="111.81" x2="151.92" y2="111.81" xlink:href="#linear-gradient"/><linearGradient id="linear-gradient-33" x1="131.58" y1="105.13" x2="151.8" y2="105.13" xlink:href="#linear-gradient"/><linearGradient id="linear-gradient-34" x1="117.05" y1="92.9" x2="129.59" y2="92.9" xlink:href="#linear-gradient"/><linearGradient id="linear-gradient-35" x1="130.05" y1="93.58" x2="142.4" y2="93.58" xlink:href="#linear-gradient"/><linearGradient id="linear-gradient-36" x1="116.1" y1="66.38" x2="135.17" y2="66.38" xlink:href="#linear-gradient"/><linearGradient id="linear-gradient-37" x1="116.53" y1="81.24" x2="141.9" y2="81.24" xlink:href="#linear-gradient"/><linearGradient id="linear-gradient-38" x1="224.56" y1="99.65" x2="225.89" y2="99.65" xlink:href="#linear-gradient"/><linearGradient id="linear-gradient-39" x1="175.95" y1="125.34" x2="175.99" y2="125.34" xlink:href="#linear-gradient"/><linearGradient id="linear-gradient-40" x1="154.3" y1="122.26" x2="174.38" y2="122.26" xlink:href="#linear-gradient"/><linearGradient id="linear-gradient-41" x1="176.18" y1="124.85" x2="185.06" y2="124.85" xlink:href="#linear-gradient"/><linearGradient id="linear-gradient-42" x1="132.97" y1="36.75" x2="136.27" y2="36.75" xlink:href="#linear-gradient"/><linearGradient id="linear-gradient-43" x1="136.59" y1="12.6" x2="154.27" y2="12.6" xlink:href="#linear-gradient"/><linearGradient id="linear-gradient-44" x1="151.12" y1="11.89" x2="155.43" y2="11.89" xlink:href="#linear-gradient"/><linearGradient id="linear-gradient-45" x1="136.26" y1="20.88" x2="152.74" y2="20.88" xlink:href="#linear-gradient"/><linearGradient id="linear-gradient-46" x1="151.25" y1="112.13" x2="153.12" y2="112.13" xlink:href="#linear-gradient"/><linearGradient id="linear-gradient-47" x1="155.3" y1="122.29" x2="175.47" y2="122.29" xlink:href="#linear-gradient"/><linearGradient id="linear-gradient-48" x1="154.86" y1="121.69" x2="172.77" y2="121.69" xlink:href="#linear-gradient"/><linearGradient id="linear-gradient-49" x1="136.93" y1="67.18" x2="143.1" y2="67.18" xlink:href="#linear-gradient"/><linearGradient id="linear-gradient-50" x1="137.58" y1="35.79" x2="153.06" y2="35.79" xlink:href="#linear-gradient"/><linearGradient id="linear-gradient-51" x1="154.33" y1="39.51" x2="171.96" y2="39.51" xlink:href="#linear-gradient"/><linearGradient id="linear-gradient-52" x1="138.6" y1="55.98" x2="170.67" y2="55.98" xlink:href="#linear-gradient"/><linearGradient id="linear-gradient-53" x1="155.3" y1="11.44" x2="166.89" y2="11.44" xlink:href="#linear-gradient"/><linearGradient id="linear-gradient-54" x1="155.93" y1="16.97" x2="180.21" y2="16.97" xlink:href="#linear-gradient"/><linearGradient id="linear-gradient-55" x1="145.16" y1="70.96" x2="171.05" y2="70.96" xlink:href="#linear-gradient"/><linearGradient id="linear-gradient-56" x1="154.45" y1="115.66" x2="172.62" y2="115.66" xlink:href="#linear-gradient"/><linearGradient id="linear-gradient-57" x1="144.3" y1="94.01" x2="152.43" y2="94.01" xlink:href="#linear-gradient"/><linearGradient id="linear-gradient-58" x1="145.75" y1="83.53" x2="174.96" y2="83.53" xlink:href="#linear-gradient"/><linearGradient id="linear-gradient-59" x1="154.99" y1="109.18" x2="173.86" y2="109.18" xlink:href="#linear-gradient"/><linearGradient id="linear-gradient-60" x1="175.28" y1="99.41" x2="177.36" y2="99.41" xlink:href="#linear-gradient"/><linearGradient id="linear-gradient-61" x1="154.03" y1="95.43" x2="175.44" y2="95.43" xlink:href="#linear-gradient"/><linearGradient id="linear-gradient-62" x1="168.01" y1="8.68" x2="180.27" y2="8.68" xlink:href="#linear-gradient"/><linearGradient id="linear-gradient-63" x1="174.95" y1="0.01" x2="176.38" y2="0.01" xlink:href="#linear-gradient"/><linearGradient id="linear-gradient-64" x1="166.32" y1="1.76" x2="174.54" y2="1.76" xlink:href="#linear-gradient"/><linearGradient id="linear-gradient-65" x1="168.88" y1="1.74" x2="177.33" y2="1.74" xlink:href="#linear-gradient"/><linearGradient id="linear-gradient-66" x1="175.99" y1="125.34" x2="176.01" y2="125.34" xlink:href="#linear-gradient"/><linearGradient id="linear-gradient-67" x1="173.44" y1="125.08" x2="175.91" y2="125.08" xlink:href="#linear-gradient"/><linearGradient id="linear-gradient-68" x1="213.62" y1="12.73" x2="213.99" y2="12.73" xlink:href="#linear-gradient"/><linearGradient id="linear-gradient-69" x1="176.27" y1="0.01" x2="177.08" y2="0.01" xlink:href="#linear-gradient"/><linearGradient id="linear-gradient-70" x1="172.06" y1="119.22" x2="174.77" y2="119.22" xlink:href="#linear-gradient"/><linearGradient id="linear-gradient-71" x1="173.83" y1="125.03" x2="176.6" y2="125.03" xlink:href="#linear-gradient"/><linearGradient id="linear-gradient-72" x1="177.2" y1="6.36" x2="182.57" y2="6.36" xlink:href="#linear-gradient"/><linearGradient id="linear-gradient-73" x1="176.9" y1="124.07" x2="185.03" y2="124.07" xlink:href="#linear-gradient"/><linearGradient id="linear-gradient-74" x1="176.07" y1="119.67" x2="180.15" y2="119.67" xlink:href="#linear-gradient"/><linearGradient id="linear-gradient-75" x1="176.69" y1="108.78" x2="191.88" y2="108.78" xlink:href="#linear-gradient"/><linearGradient id="linear-gradient-76" x1="176.59" y1="117.68" x2="186.54" y2="117.68" xlink:href="#linear-gradient"/><linearGradient id="linear-gradient-77" x1="173.49" y1="36.39" x2="181.64" y2="36.39" xlink:href="#linear-gradient"/><linearGradient id="linear-gradient-78" x1="226.09" y1="93.02" x2="232.41" y2="93.02" xlink:href="#linear-gradient"/><linearGradient id="linear-gradient-79" x1="174.84" y1="44.46" x2="197.39" y2="44.46" xlink:href="#linear-gradient"/><linearGradient id="linear-gradient-80" x1="178.85" y1="94.97" x2="193" y2="94.97" xlink:href="#linear-gradient"/><linearGradient id="linear-gradient-81" x1="179.69" y1="86.77" x2="211.03" y2="86.77" xlink:href="#linear-gradient"/><linearGradient id="linear-gradient-82" x1="173.34" y1="72.57" x2="177.18" y2="72.57" xlink:href="#linear-gradient"/><linearGradient id="linear-gradient-83" x1="175.7" y1="60.95" x2="212.63" y2="60.95" xlink:href="#linear-gradient"/><linearGradient id="linear-gradient-84" x1="179.37" y1="73.79" x2="212.93" y2="73.79" xlink:href="#linear-gradient"/><linearGradient id="linear-gradient-85" x1="182.83" y1="21.57" x2="196.71" y2="21.57" xlink:href="#linear-gradient"/><linearGradient id="linear-gradient-86" x1="182.26" y1="7.37" x2="184.91" y2="7.37" xlink:href="#linear-gradient"/><linearGradient id="linear-gradient-87" x1="183.12" y1="12.09" x2="199.35" y2="12.09" xlink:href="#linear-gradient"/><linearGradient id="linear-gradient-88" x1="193" y1="13.28" x2="219.16" y2="13.28" xlink:href="#linear-gradient"/><linearGradient id="linear-gradient-89" x1="214.89" y1="19.15" x2="220.45" y2="19.15" xlink:href="#linear-gradient"/><linearGradient id="linear-gradient-90" x1="192" y1="6.03" x2="199.86" y2="6.03" xlink:href="#linear-gradient"/><linearGradient id="linear-gradient-91" x1="183.76" y1="5.53" x2="198.31" y2="5.53" xlink:href="#linear-gradient"/><linearGradient id="linear-gradient-92" x1="212.98" y1="75.59" x2="214.86" y2="75.59" xlink:href="#linear-gradient"/><linearGradient id="linear-gradient-93" x1="176.63" y1="1.04" x2="190.11" y2="1.04" xlink:href="#linear-gradient"/><linearGradient id="linear-gradient-94" x1="177.26" y1="0.54" x2="181.28" y2="0.54" xlink:href="#linear-gradient"/><linearGradient id="linear-gradient-95" x1="182.96" y1="1.83" x2="190.66" y2="1.83" xlink:href="#linear-gradient"/><linearGradient id="linear-gradient-96" x1="201.71" y1="17.62" x2="218.68" y2="17.62" xlink:href="#linear-gradient"/><linearGradient id="linear-gradient-97" x1="198.81" y1="19.6" x2="201.67" y2="19.6" xlink:href="#linear-gradient"/><linearGradient id="linear-gradient-98" x1="216.36" y1="60.6" x2="228.5" y2="60.6" xlink:href="#linear-gradient"/><linearGradient id="linear-gradient-99" x1="199.35" y1="45.65" x2="213.9" y2="45.65" xlink:href="#linear-gradient"/><linearGradient id="linear-gradient-100" x1="199.98" y1="27.51" x2="219.58" y2="27.51" xlink:href="#linear-gradient"/><linearGradient id="linear-gradient-101" x1="215.42" y1="43.67" x2="222.09" y2="43.67" xlink:href="#linear-gradient"/><linearGradient id="linear-gradient-102" x1="187.33" y1="113.79" x2="193.71" y2="113.79" xlink:href="#linear-gradient"/><linearGradient id="linear-gradient-103" x1="195.27" y1="96.65" x2="210.96" y2="96.65" xlink:href="#linear-gradient"/><linearGradient id="linear-gradient-104" x1="195.02" y1="108.48" x2="210.66" y2="108.48" xlink:href="#linear-gradient"/><linearGradient id="linear-gradient-105" x1="185.9" y1="123.26" x2="187.17" y2="123.26" xlink:href="#linear-gradient"/><linearGradient id="linear-gradient-106" x1="187.54" y1="117.45" x2="209.41" y2="117.45" xlink:href="#linear-gradient"/><linearGradient id="linear-gradient-107" x1="212.48" y1="104.77" x2="223.75" y2="104.77" xlink:href="#linear-gradient"/><linearGradient id="linear-gradient-108" x1="211.46" y1="100.71" x2="215.24" y2="100.71" xlink:href="#linear-gradient"/><linearGradient id="linear-gradient-109" x1="210.5" y1="11.12" x2="212.61" y2="11.12" xlink:href="#linear-gradient"/><linearGradient id="linear-gradient-110" x1="192.61" y1="7.36" x2="212.7" y2="7.36" xlink:href="#linear-gradient"/><linearGradient id="linear-gradient-111" x1="221.84" y1="35.1" x2="233.49" y2="35.1" xlink:href="#linear-gradient"/><linearGradient id="linear-gradient-112" x1="221.35" y1="41.93" x2="229.73" y2="41.93" xlink:href="#linear-gradient"/><linearGradient id="linear-gradient-113" x1="214.03" y1="73.84" x2="229.14" y2="73.84" xlink:href="#linear-gradient"/><linearGradient id="linear-gradient-114" x1="226.41" y1="87.93" x2="233.18" y2="87.93" xlink:href="#linear-gradient"/><linearGradient id="linear-gradient-115" x1="213.92" y1="92.58" x2="224.78" y2="92.58" xlink:href="#linear-gradient"/><linearGradient id="linear-gradient-116" x1="214.36" y1="83.74" x2="233.15" y2="83.74" xlink:href="#linear-gradient"/><linearGradient id="linear-gradient-117" x1="230.53" y1="51.89" x2="234.3" y2="51.89" xlink:href="#linear-gradient"/><linearGradient id="linear-gradient-118" x1="230.48" y1="68.95" x2="234.06" y2="68.95" xlink:href="#linear-gradient"/><linearGradient id="linear-gradient-119" x1="187.75" y1="118.77" x2="208.85" y2="118.77" xlink:href="#linear-gradient"/><linearGradient id="linear-gradient-120" x1="211.41" y1="111.18" x2="216.99" y2="111.18" xlink:href="#linear-gradient"/><linearGradient id="linear-gradient-121" x1="200.1" y1="116.82" x2="210.39" y2="116.82" xlink:href="#linear-gradient"/><linearGradient id="linear-gradient-122" x1="215.43" y1="14.55" x2="216.73" y2="14.55" xlink:href="#linear-gradient"/><linearGradient id="linear-gradient-123" x1="215.81" y1="28.58" x2="233.91" y2="28.58" xlink:href="#linear-gradient"/><linearGradient id="linear-gradient-124" x1="233.35" y1="40.69" x2="234.59" y2="40.69" xlink:href="#linear-gradient"/><linearGradient id="linear-gradient-125" x1="185.89" y1="1.45" x2="190.87" y2="1.45" xlink:href="#linear-gradient"/><linearGradient id="linear-gradient-126" x1="191.13" y1="2.4" x2="193.85" y2="2.4" xlink:href="#linear-gradient"/><linearGradient id="linear-gradient-127" x1="234.3" y1="82.16" x2="235.09" y2="82.16" xlink:href="#linear-gradient"/><linearGradient id="linear-gradient-128" x1="181.74" y1="124.69" x2="185.82" y2="124.69" xlink:href="#linear-gradient"/><linearGradient id="linear-gradient-129" x1="186.3" y1="123.11" x2="196.11" y2="123.11" xlink:href="#linear-gradient"/><linearGradient id="linear-gradient-130" x1="234.66" y1="61.93" x2="236.53" y2="61.93" xlink:href="#linear-gradient"/><linearGradient id="linear-gradient-131" x1="235.03" y1="46.79" x2="236.98" y2="46.79" xlink:href="#linear-gradient"/><linearGradient id="linear-gradient-132" x1="234.85" y1="70.7" x2="238.64" y2="70.7" xlink:href="#linear-gradient"/><linearGradient id="linear-gradient-133" x1="115.57" y1="80.49" x2="117.06" y2="80.49" xlink:href="#linear-gradient"/><linearGradient id="linear-gradient-134" x1="150.56" y1="120.75" x2="155.04" y2="120.75" xlink:href="#linear-gradient"/><linearGradient id="linear-gradient-135" x1="115.7" y1="48.97" x2="117.24" y2="48.97" xlink:href="#linear-gradient"/><linearGradient id="linear-gradient-136" x1="173.63" y1="125.32" x2="175.99" y2="125.32" xlink:href="#linear-gradient"/><linearGradient id="linear-gradient-137" x1="129.57" y1="104.83" x2="132.85" y2="104.83" xlink:href="#linear-gradient"/><linearGradient id="linear-gradient-138" x1="172.67" y1="0.05" x2="175.99" y2="0.05" xlink:href="#linear-gradient"/><linearGradient id="linear-gradient-139" x1="154.13" y1="4.33" x2="158.18" y2="4.33" xlink:href="#linear-gradient"/><linearGradient id="linear-gradient-140" x1="133.65" y1="21.8" x2="136.98" y2="21.8" xlink:href="#linear-gradient"/><linearGradient id="linear-gradient-141" x1="151.73" y1="118.4" x2="155.4" y2="118.4" xlink:href="#linear-gradient"/><linearGradient id="linear-gradient-142" x1="135.04" y1="52.23" x2="138.75" y2="52.23" xlink:href="#linear-gradient"/><linearGradient id="linear-gradient-143" x1="141.84" y1="82.05" x2="145.79" y2="82.05" xlink:href="#linear-gradient"/><linearGradient id="linear-gradient-144" x1="175.17" y1="125.33" x2="175.99" y2="125.33" xlink:href="#linear-gradient"/><linearGradient id="linear-gradient-145" x1="151.52" y1="105.42" x2="155.03" y2="105.42" xlink:href="#linear-gradient"/><linearGradient id="linear-gradient-146" x1="152.5" y1="20.02" x2="156.02" y2="20.02" xlink:href="#linear-gradient"/><linearGradient id="linear-gradient-147" x1="166.68" y1="3.76" x2="169.04" y2="3.76" xlink:href="#linear-gradient"/><linearGradient id="linear-gradient-148" x1="172.58" y1="124.63" x2="174.16" y2="124.63" xlink:href="#linear-gradient"/><linearGradient id="linear-gradient-149" x1="170.57" y1="59.76" x2="175.72" y2="59.76" xlink:href="#linear-gradient"/><linearGradient id="linear-gradient-150" x1="173.78" y1="112.88" x2="176.85" y2="112.88" xlink:href="#linear-gradient"/><linearGradient id="linear-gradient-151" x1="174.93" y1="85.11" x2="179.73" y2="85.11" xlink:href="#linear-gradient"/><linearGradient id="linear-gradient-152" x1="180.07" y1="14.02" x2="183.26" y2="14.02" xlink:href="#linear-gradient"/><linearGradient id="linear-gradient-153" x1="191.85" y1="104.49" x2="195.45" y2="104.49" xlink:href="#linear-gradient"/><linearGradient id="linear-gradient-154" x1="175.99" y1="0.05" x2="177.36" y2="0.05" xlink:href="#linear-gradient"/><linearGradient id="linear-gradient-155" x1="175.99" y1="125.32" x2="176.98" y2="125.32" xlink:href="#linear-gradient"/><linearGradient id="linear-gradient-156" x1="196.29" y1="29.53" x2="200.19" y2="29.53" xlink:href="#linear-gradient"/><linearGradient id="linear-gradient-157" x1="181.26" y1="1.49" x2="183.82" y2="1.49" xlink:href="#linear-gradient"/><linearGradient id="linear-gradient-158" x1="185.03" y1="122.16" x2="187.84" y2="122.16" xlink:href="#linear-gradient"/><linearGradient id="linear-gradient-159" x1="212.63" y1="62.32" x2="216.4" y2="62.32" xlink:href="#linear-gradient"/><linearGradient id="linear-gradient-160" x1="210.78" y1="88.51" x2="214.41" y2="88.51" xlink:href="#linear-gradient"/><linearGradient id="linear-gradient-161" x1="198.3" y1="10.25" x2="201.73" y2="10.25" xlink:href="#linear-gradient"/><linearGradient id="linear-gradient-162" x1="183.67" y1="124.21" x2="187.8" y2="124.21" xlink:href="#linear-gradient"/><linearGradient id="linear-gradient-163" x1="228.42" y1="58.91" x2="230.92" y2="58.91" xlink:href="#linear-gradient"/><linearGradient id="linear-gradient-164" x1="218.68" y1="25.55" x2="221.85" y2="25.55" xlink:href="#linear-gradient"/><linearGradient id="linear-gradient-165" x1="188.78" y1="2.28" x2="193.1" y2="2.28" xlink:href="#linear-gradient"/><linearGradient id="linear-gradient-166" x1="208.85" y1="112.39" x2="212.55" y2="112.39" xlink:href="#linear-gradient"/><linearGradient id="linear-gradient-167" x1="223.61" y1="96.61" x2="226.51" y2="96.61" xlink:href="#linear-gradient"/><linearGradient id="linear-gradient-168" x1="233.01" y1="78.91" x2="234.87" y2="78.91" xlink:href="#linear-gradient"/><linearGradient id="linear-gradient-169" x1="233.47" y1="44.99" x2="235.26" y2="44.99" xlink:href="#linear-gradient"/><linearGradient id="linear-gradient-170" x1="212.15" y1="13.03" x2="215.95" y2="13.03" xlink:href="#linear-gradient"/></defs><title>Ativo 1</title><g class="cls-1"><g id="Camada_2" data-name="Camada 2"><g id="Layer_1" data-name="Layer 1"><path class="cls-2" d="M84.48,222.37H81.34v-1.61h8v1.61H86.24v8.3H84.48Z"/><path class="cls-2" d="M91.22,220.76h4.42a4,4,0,0,1,2.86,1,3,3,0,0,1,.82,2.14v0a3,3,0,0,1-2.37,3l2.68,3.75h-2l-2.44-3.45H93v3.45H91.22Zm4.29,4.91c1.25,0,2-.65,2-1.65v0c0-1.06-.77-1.64-2-1.64H93v3.32Z"/><path class="cls-2" d="M105,220.69h1.62l4.36,10H109.1l-1-2.39h-4.68l-1,2.39H100.6Zm2.5,6.05-1.72-4-1.7,4Z"/><path class="cls-2" d="M112.63,220.76h1.62l5.31,6.85v-6.85h1.71v9.91h-1.46l-5.46-7v7h-1.72Z"/><path class="cls-2" d="M123.15,229.23l1-1.25a4.56,4.56,0,0,0,3.13,1.29c1.07,0,1.75-.49,1.75-1.25v0c0-.71-.39-1.09-2.24-1.52-2.1-.51-3.29-1.13-3.29-3v0c0-1.7,1.41-2.87,3.38-2.87a5.55,5.55,0,0,1,3.6,1.24l-.94,1.32a4.52,4.52,0,0,0-2.69-1c-1,0-1.61.53-1.61,1.18v0c0,.76.45,1.1,2.35,1.55,2.09.51,3.18,1.26,3.18,2.91v0c0,1.86-1.45,3-3.54,3A6.11,6.11,0,0,1,123.15,229.23Z"/><path class="cls-2" d="M132.87,220.76h3.91c2.31,0,3.77,1.32,3.77,3.31v0c0,2.22-1.79,3.39-4,3.39h-2v3.18h-1.74Zm3.77,5.15c1.32,0,2.14-.73,2.14-1.76v0c0-1.16-.84-1.77-2.14-1.77h-2v3.56Z"/><path class="cls-2" d="M141.89,225.74v0a5.08,5.08,0,0,1,5.2-5.13,5,5,0,0,1,5.16,5.1v0a5.18,5.18,0,0,1-10.36,0Zm8.54,0v0a3.4,3.4,0,0,0-3.37-3.53,3.35,3.35,0,0,0-3.34,3.5v0a3.39,3.39,0,0,0,3.37,3.52A3.35,3.35,0,0,0,150.43,225.74Z"/><path class="cls-2" d="M154.36,220.76h4.42a4,4,0,0,1,2.86,1,3,3,0,0,1,.82,2.14v0a3,3,0,0,1-2.37,3l2.68,3.75h-2.05l-2.44-3.45H156.1v3.45h-1.74Zm4.29,4.91c1.25,0,2-.65,2-1.65v0c0-1.06-.77-1.64-2.06-1.64H156.1v3.32Z"/><path class="cls-2" d="M167,222.37h-3.14v-1.61h8v1.61h-3.14v8.3H167Z"/><path class="cls-2" d="M173.72,220.76h7.35v1.56h-5.61v2.58h5v1.55h-5v2.66h5.68v1.56h-7.42Z"/><path class="cls-2" d="M187.45,220.76h7.35v1.56h-5.61v2.58h5v1.55h-5v2.66h5.68v1.56h-7.42Z"/><path class="cls-2" d="M201.18,220.76h1.74v8.33h5.21v1.58h-6.95Z"/><path class="cls-2" d="M208.93,225.74v0a5.19,5.19,0,0,1,10.37,0v0a5.19,5.19,0,0,1-10.37,0Zm8.54,0v0a3.4,3.4,0,0,0-3.37-3.53,3.35,3.35,0,0,0-3.34,3.5v0a3.39,3.39,0,0,0,3.37,3.52A3.35,3.35,0,0,0,217.47,225.74Z"/><path class="cls-2" d="M221,225.74v0a5.06,5.06,0,0,1,5.12-5.13,5.34,5.34,0,0,1,3.81,1.35l-1.11,1.31a3.87,3.87,0,0,0-2.78-1.06,3.35,3.35,0,0,0-3.21,3.5v0a3.31,3.31,0,0,0,3.37,3.54,4,4,0,0,0,2.39-.75v-1.86H226v-1.51h4.22v4.16a6.36,6.36,0,0,1-4.14,1.54A4.92,4.92,0,0,1,221,225.74Z"/><path class="cls-2" d="M232.6,220.76h1.74v9.91H232.6Zm1.77-2.87,1.56.68-1.82,1.37h-1.33Z"/><path class="cls-2" d="M236.32,229.23l1.05-1.25a4.58,4.58,0,0,0,3.13,1.29c1.07,0,1.75-.49,1.75-1.25v0c0-.71-.39-1.09-2.23-1.52-2.11-.51-3.3-1.13-3.3-3v0c0-1.7,1.41-2.87,3.38-2.87a5.54,5.54,0,0,1,3.6,1.24l-.94,1.32a4.52,4.52,0,0,0-2.69-1c-1,0-1.61.53-1.61,1.18v0c0,.76.45,1.1,2.35,1.55,2.1.51,3.19,1.26,3.19,2.91v0c0,1.86-1.46,3-3.54,3A6.11,6.11,0,0,1,236.32,229.23Z"/><path class="cls-2" d="M248.27,222.37h-3.14v-1.61h8v1.61H250v8.3h-1.75Z"/><path class="cls-2" d="M255.1,220.76h1.74v9.91H255.1Z"/><path class="cls-2" d="M259.05,225.74v0a5,5,0,0,1,5.11-5.13,5.19,5.19,0,0,1,3.88,1.54l-1.12,1.29a4,4,0,0,0-2.77-1.23,3.33,3.33,0,0,0-3.27,3.5v0a3.34,3.34,0,0,0,3.27,3.52A3.87,3.87,0,0,0,267,228l1.11,1.14a5.11,5.11,0,0,1-4,1.75A5,5,0,0,1,259.05,225.74Z"/><path class="cls-2" d="M273.45,220.69h1.61l4.36,10h-1.84l-1-2.39h-4.69l-1,2.39h-1.78Zm2.49,6.05-1.71-4-1.7,4Z"/><path class="cls-3" d="M0,172.45v-.2C0,151.38,16.36,135,38.56,135c12.58,0,21.48,3.89,29.05,10.43L56,159.46c-5.12-4.29-10.23-6.75-17.29-6.75-10.33,0-18.31,8.7-18.31,19.64v.21c0,11.55,8.08,19.84,19.44,19.84,4.8,0,8.49-1,11.45-3v-8.69H37.13V166.22H70.06v32.21a48.4,48.4,0,0,1-31.09,11C16.67,209.48,0,194.14,0,172.45Z"/><path class="cls-4" d="M81.1,136.45H115c10.94,0,18.51,2.87,23.32,7.78,4.19,4.09,6.34,9.61,6.34,16.67v.2c0,11-5.83,18.21-14.73,22l17.08,25H124.06l-14.42-21.69H101v21.69H81.1ZM114,170.82c6.75,0,10.63-3.28,10.63-8.49v-.21c0-5.62-4.09-8.49-10.73-8.49H101v17.19Z"/><path class="cls-5" d="M157.29,136.45h5.32v66.69h42v4.91H157.29Z"/><path class="cls-6" d="M207.41,172.45v-.2c0-19.54,14.42-37,36.1-37s35.9,17.29,35.9,36.83v.2c0,19.53-14.42,37-36.1,37S207.41,192,207.41,172.45Zm66.48,0v-.2c0-17.69-12.89-32.22-30.58-32.22s-30.38,14.32-30.38,32v.2c0,17.69,12.89,32.22,30.58,32.22S273.89,190.15,273.89,172.45Z"/><path class="cls-7" d="M288.41,172.45v-.2c0-19.33,14-37,35.39-37,11.66,0,19,3.48,26.18,9.41l-3.48,4c-5.62-4.91-12.17-8.59-23-8.59-17.39,0-29.56,14.73-29.56,32v.2c0,18.51,11.56,32.32,30.69,32.32a36.72,36.72,0,0,0,22.8-8.18V175.83H323.49v-4.91h29.05v27.62a43.12,43.12,0,0,1-28.13,10.74C301.81,209.28,288.41,192.6,288.41,172.45Z"/><polygon class="cls-8" points="70.06 180.77 51.24 185.92 51.23 178.08 70.06 178.08 70.06 180.77"/><rect class="cls-9" x="36.99" y="166.08" width="33.07" height="14.69"/><g class="cls-1"><path class="cls-10" d="M235.46,44.63c.06.19.12.39.17.58l.44,1.62c-.11-.37-.11-.37-.61-2.2Z"/><path class="cls-10" d="M236.77,49.73c0-.1-.05-.21-.07-.31l.11.48.09.44-.13-.57v0Z"/><path class="cls-10" d="M236.63,76.27l-.12.53c-.52,1.75-1.31,4-2,5.73a2.8,2.8,0,0,1,.06-.28c.61-1.8,1.55-4.15,2.06-6Z"/><path class="cls-10" d="M233.6,85.08a2.55,2.55,0,0,0,.13-.29,30.12,30.12,0,0,1-.93,3.07l-.19.4a24.27,24.27,0,0,0,1-3.14l0,0Z"/><path class="cls-10" d="M181,124.61l-.42,0c-.2,0-1.18,0-3.73,0a17.26,17.26,0,0,1,2.41,0l1.74,0Z"/><path class="cls-10" d="M129.87,21.06a5.62,5.62,0,0,1,1.75-.28l-.14.15c0,.05,0,.12-.11.13a8.58,8.58,0,0,1-.87.1,3.4,3.4,0,0,0-.89.19c.09-.09.17-.19.26-.29Z"/><path class="cls-10" d="M194.08,3.22l-.2-.06c1.26.42,2.94,1,4.18,1.42l.61.23c-1.37-.48-3.18-1.15-4.57-1.58Z"/><path class="cls-10" d="M233.2,85.87l.1-.17a43.23,43.23,0,0,1-4.45,9.62l-.39.61a42.69,42.69,0,0,0,4.72-10l0,0Z"/><path class="cls-10" d="M153,4.94a13.81,13.81,0,0,1,2-.55,3.82,3.82,0,0,1-.36.13c-.24.08-.58.14-.82.2a10.06,10.06,0,0,0-1.18.37l.37-.15Z"/><path class="cls-10" d="M142.42,10.4a56.81,56.81,0,0,1,11.36-5.52c-2.14.94-4.34,1.73-6.44,2.76-1.66.82-3.78,2.08-5.36,3l.44-.28Z"/><path class="cls-10" d="M173.81.57H174a56,56,0,0,0-17,3.12l-.2.07a54.63,54.63,0,0,1,17-3.18Z"/><path class="cls-10" d="M163.62,3.74c-.07,0-.12.11-.21.11-2.67.22-5.34.28-8,.54.33-.12.7-.27,8.22-.65Z"/><path class="cls-10" d="M168.9,124.41l.74.08h.06l-.8-.08Z"/><path class="cls-10" d="M129.61,104l.4.44-.4-.44Z"/><path class="cls-10" d="M148.41,118.35c-1-.56-1-.57-1.35-1.15-.13-.2,0-.58.12-.8l.31.19c-.08.23-.23.6-.09.8a2.65,2.65,0,0,0,1.36,1.13l-.35-.17Z"/><path class="cls-10" d="M116.53,44.61c2-5.63,4.49-12.64,14-22.3-.46,1.26-2.09,2.32-3,3.31a52,52,0,0,0-11.12,19.5l0-.09c0-.14.08-.28.13-.42Z"/><path class="cls-10" d="M115.77,47.33l.09-.35c.47.82,2.29,1.51,10.2,2.62A2.74,2.74,0,0,0,126,50c-7-1-10-1.71-10.22-2.59v-.05Z"/><path class="cls-10" d="M129.24,103.52l-.17-.19c4.82,4.83,8.08,7.38,16.72,12.07l.15.14c-8.6-4.63-11.85-7.17-16.68-12l0,0Z"/><path class="cls-10" d="M128.3,102.4l-.23-.28c.65.07,1.73.19,13.87.39l.15.26c-6.48,0-13.31-.27-13.77-.35l0,0Z"/><path class="cls-10" d="M131.37,80.18l.14.26c-5.62,7-9.19,12.59-4,21-7-8.57.87-17.81,3.84-21.29Z"/><path class="cls-10" d="M114.69,72.89C114,65,117,59.27,125.92,51a2.51,2.51,0,0,0,0,.27c-8.09,7.89-12,13.47-11.19,22.09,0-.15,0-.3-.08-.46Z"/><path class="cls-10" d="M115.73,77.87c.36.19,1,.53,15.26,1.06a2.69,2.69,0,0,0,.06.36c-3.86-.11-15-.54-15.22-1,0-.13-.07-.26-.1-.39Z"/><path class="cls-10" d="M220.68,94.07l.18-.29c3.75,3.17,5.19,5.41,2.65,8.89l-.27.32c2-2.84,2.13-5-2.59-8.89l0,0Z"/><path class="cls-10" d="M172.27,124.7l-.39,0,1.51,0,.3,0c-1,0-1.22,0-1.39,0Z"/><path class="cls-10" d="M148.46,117.11l.23.11c2.71,1.45,5.18,3.36,8.13,4.36a52.06,52.06,0,0,0,13.5,3c-12.71-1.16-19.12-5.56-21.86-7.44Z"/><path class="cls-10" d="M186,122.91c-.59.24-8.1,1.55-9,1.7.05,0,.08,0,1.9-.36,3.43-.62,5.45-1,7.06-1.34Z"/><path class="cls-10" d="M131,22.43l.18-.14c-2.54,4.76-6.38,12-4.1,25.57l-.24.21c-.8-6-2-15.2,4.14-25.63Z"/><path class="cls-10" d="M153.11,5.23h.06c-5.56,2.68-11.86,5.72-19.6,14A57.08,57.08,0,0,1,153.11,5.23Z"/><path class="cls-10" d="M154,4.94l.27-.1c-3.35,1.84-9.59,5.27-8.19,13.09l-.27.21C145.43,15,144.81,9.62,154,5Z"/><path class="cls-10" d="M145,19.06a2.27,2.27,0,0,0-.18.28c-6.78.69-9,1-12.24,1.55.19-.22.54-.62,12.42-1.83Z"/><path class="cls-10" d="M143,103.78a2.61,2.61,0,0,0,.27.22c-.33,4.09-.26,7.1,3.56,11.53,0,0-4.77-3.21-3.83-11.75Z"/><path class="cls-10" d="M149.34,117.27l-.11-.1c6.62,3.16,13.34,6.1,22.85,7.4l.14,0c-5.63-.82-12-2.06-22.87-7.31Z"/><path class="cls-10" d="M148.9,116.9l-.21-.16a159.76,159.76,0,0,0,19.66,6.39l.09.05a155.6,155.6,0,0,1-19.51-6.26l0,0Z"/><path class="cls-10" d="M127.24,52.32l.22-.08a81.29,81.29,0,0,0,4.42,24.63l-.24.09a81.21,81.21,0,0,1-4.43-24.63Z"/><path class="cls-10" d="M144.68,20.65l.13.07c-6.9,8.42-11.57,15.22-16.53,27.06l-.12-.08c3.69-9.08,7.58-16.41,16.52-27.05Z"/><path class="cls-10" d="M145.86,20.57l.24-.13c-.55,8.61,1,17,10.48,34.42a3.79,3.79,0,0,0-.34.2c-7.38-13.81-11.46-23.88-10.42-34.47l0,0Z"/><path class="cls-10" d="M128.64,50.54c0-.08.05-.17.09-.35,4.13,1.2,10.37,3,26.65,6.22,0,.09,0,.21,0,.3a252.82,252.82,0,0,1-26.7-6.13v0Z"/><path class="cls-10" d="M162.68,4.54a62.58,62.58,0,0,0-15.06,13l-.16-.05c3.59-3.91,8-8.76,15.22-12.91Z"/><path class="cls-10" d="M169.89,13.49a1,1,0,0,0,0,.24c-7.29,1.57-14.82,3.2-22.29,5.1l.1-.21c3.27-.87,6.65-1.77,22.19-5.13Z"/><path class="cls-10" d="M155.53,58.28c0,.08.1.19.15.27-10,7.85-15.07,11.79-21.92,19.46l-.15-.25c3-3.57,7.21-8.46,21.92-19.48Z"/><path class="cls-10" d="M144.7,104.39a.57.57,0,0,0,.13-.08c3.81,4.17,12.72,14,23.29,18.57-3-1.4-12.19-5.67-23.44-18.48Z"/><path class="cls-10" d="M133.16,81.48l.21,0a84.34,84.34,0,0,0,8.89,19.42l-.2,0a83.46,83.46,0,0,1-8.94-19.42Z"/><path class="cls-10" d="M134.22,79.52a1.37,1.37,0,0,0-.05-.33c6.4.72,12,1.32,25.82,2.52V82c-10.66-.7-24.25-2.25-25.76-2.42v0Z"/><path class="cls-10" d="M145,103.4a1.57,1.57,0,0,0-.08-.25c4.91,1.82,8.44,3.1,18.8,6.5a2.09,2.09,0,0,0,0,.25c-10.34-3.4-13.64-4.58-18.72-6.47v0Z"/><path class="cls-10" d="M162.09,84.32l.26,0c.72,11.94,1,16.88,2.7,24.43l-.25,0c-.92-4.27-2.32-10.74-2.71-24.43Z"/><path class="cls-10" d="M160.41,83.3a2.34,2.34,0,0,0,.25.3c-6.83,5.68-13.25,11.34-16.71,18.12a3.2,3.2,0,0,0-.27-.25c2-3.66,4.56-8.21,16.73-18.17Z"/><path class="cls-10" d="M163.88,4.25l.21-.11c-.27,2.22.6,4,6.29,8.28a1.54,1.54,0,0,0-.17.19c-5.27-4-6.7-5.87-6.36-8.35Z"/><path class="cls-10" d="M175.77.53h0Z"/><path class="cls-10" d="M175,.54h.35c-7.66.19-11.41,1.17-11.14,2.94l-.25.11c-.16-1.83,3.54-2.86,11-3Z"/><path class="cls-10" d="M176,.53l.05.06a15.75,15.75,0,0,1-1.71.52c-3.07.83-6.15,1.6-9.22,2.42a11,11,0,0,1,2.21-.65c.22-.06,1.15-.31,5-1.3a26.56,26.56,0,0,0,3.67-1l-.05,0Z"/><path class="cls-10" d="M176.59,124.64c-.05,0-.05,0-.73,0l-2,0-.28,0c.75,0,1.56,0,3-.07Z"/><path class="cls-10" d="M169.58,123.64c.37.12.67.38,1,.49a18.8,18.8,0,0,0,2.34.52,7.52,7.52,0,0,1-3.39-1Z"/><path class="cls-10" d="M209.15,10.13l.33.22a3.59,3.59,0,0,1,.9.88,1.33,1.33,0,0,1,0,.79l-.31-.23a1.54,1.54,0,0,0-.11-.9,3.18,3.18,0,0,0-.83-.76Z"/><path class="cls-10" d="M164.93,111.56l.25.1c-.32,3.33-.81,8.36,3.47,11.28-.05,0-5.07-2-3.72-11.38Z"/><path class="cls-10" d="M170.11,123.55l-.15-.07c4.3.66,5.75.88,6.71,1.12-.1.06-.27,0-.38,0-1.13-.23-2.2-.39-6.16-1Z"/><path class="cls-10" d="M176.22.56c.6.43,1,.69.05,3.32a72.08,72.08,0,0,1-4,8.14l-.16-.06c4-7.55,5.48-10.38,4.14-11.4Z"/><path class="cls-10" d="M182.2,121.05l.05,0a25.8,25.8,0,0,1-5,3.37,29.62,29.62,0,0,0,4.95-3.41Z"/><path class="cls-10" d="M166.46,111.58s.07,0,.14-.12c8.43,8.53,11,11.43,10.39,13l-.07,0c.35-1.64-1.41-3.81-10.48-12.9Z"/><path class="cls-10" d="M180.72,102.25a1.46,1.46,0,0,0,.1.23c-8.72,4.16-10.06,4.8-14.29,7.23a1.19,1.19,0,0,0-.15-.21,144.2,144.2,0,0,1,14.34-7.25Z"/><path class="cls-10" d="M166.81,111.11a1,1,0,0,0,0-.19c10.08,4.86,13.4,6.61,16,8.85l-.14.12c-3.21-2.51-5.59-3.82-15.87-8.75v0Z"/><path class="cls-10" d="M170.73,14.69l.22,0c-5.82,16.11-8.75,24.2-12.63,40l-.23,0c1.77-8.11,4.52-18.56,12.64-39.95Z"/><path class="cls-10" d="M233.21,84.49s-1.37,3-11.9,8.31a2.34,2.34,0,0,0,.09-.33c5-2.6,8.55-4.55,11.81-8Z"/><path class="cls-10" d="M183.6,29.29l.21.17c-7.71,9-16.45,17.12-24.46,25.89l-.2-.21c7.85-8.9,16.58-17,24.45-25.85Z"/><path class="cls-10" d="M163.87,83.82a1.37,1.37,0,0,0,.21-.23c15,14.08,15,14.08,17.38,16.51l-.2.16c-1.16-1.12-1.16-1.12-17.43-16.41l0,0Z"/><path class="cls-10" d="M164.51,82.42c0-.1,0-.24,0-.33,31.16,2.53,31.16,2.53,34.65,2.85,0,.11-.06.25-.08.36-2.13-.19-2.13-.19-34.57-2.84v0Z"/><path class="cls-10" d="M157.76,59.51l.34,0c.94,6.23,1.68,11.16,3.79,20.34l-.28,0a185.66,185.66,0,0,1-3.9-20.32Z"/><path class="cls-10" d="M159.88,57.34c0-.11,0-.26,0-.37,12.92.69,25.85,1.3,38.77,2,0,.12,0,.29,0,.41-12.93-.72-25.86-1.34-38.79-2v0Z"/><path class="cls-10" d="M198.87,60.41c0,.11.12.25.18.36C187.73,68,175.8,74.24,164.25,81.1l-.2-.33c11.59-6.82,23.52-13,34.82-20.36Z"/><path class="cls-10" d="M172.17,14.46a1.22,1.22,0,0,0,.19-.13c2.89,3.47,3.77,4.52,11.26,12l-.24.2c-6.72-6.76-8.51-8.67-11.24-12.06l0,0Z"/><path class="cls-10" d="M179,2l.11.05c0,2.07-.58,3.75-6.56,10.15a.83.83,0,0,0-.18-.13C176.69,7.46,179.28,4.47,179,2Z"/><path class="cls-10" d="M191.18,9.75l.13.16c-4.26,1-8.88,1.78-18.4,3.26a1.77,1.77,0,0,0,0-.23c7.1-1.11,12.71-2,18.28-3.19Z"/><path class="cls-10" d="M189,2.92c6.79,3,14.05,6.88,21.61,19.3h-.13C205.38,14.46,200.28,7.66,189,2.92Z"/><path class="cls-10" d="M210.58,12.82s3.74,3.12,1.42,10.28l-.27-.25c.84-2.94,1.63-5.72-1.15-10Z"/><path class="cls-10" d="M188,2.68a9.17,9.17,0,0,1,3,2.13,5.71,5.71,0,0,1,1.39,4.09l-.25-.14c-.23-3.09-.73-4-4.12-6.08Z"/><path class="cls-10" d="M179.72,2.08V2c3.28,1.75,5.88,3.24,11,6.59a.56.56,0,0,0,0,.12c-4.76-3.11-7.14-4.58-11-6.65Z"/><path class="cls-10" d="M200.92,61.82a1.87,1.87,0,0,0,.36,0,142.62,142.62,0,0,1,.17,21.28h-.25a165.39,165.39,0,0,0-.28-21.26Z"/><path class="cls-10" d="M176.08.53H176a92.85,92.85,0,0,1,10.2,1.56l.26.09A103.78,103.78,0,0,0,176.09.53Z"/><path class="cls-10" d="M176.29.56h0a17,17,0,0,1,2,.72l0,0a16.48,16.48,0,0,0-1.92-.73Z"/><path class="cls-10" d="M179.47,1.72l-.1-.07c4,.3,5,.38,7.24.57l.28.09c-2.11-.18-3.29-.27-7.41-.58Z"/><path class="cls-10" d="M193.66,10.68a.42.42,0,0,0,0-.12A181.92,181.92,0,0,1,209.82,22.5a1.33,1.33,0,0,0,0,.19,182,182,0,0,0-16.11-12v0Z"/><path class="cls-10" d="M192.14,10.59l.18.09c-.07,2.85-.16,6.74-6.15,15.81l-.28-.19c2.68-4.24,6.36-10,6.25-15.71Z"/><path class="cls-10" d="M217.83,56.07c0,.18,0,.23.06.4-5.69,1.13-7.45,1.46-14.85,2.71a2.7,2.7,0,0,0,0-.41c7.41-1.26,9.21-1.58,14.84-2.7Z"/><path class="cls-10" d="M185.9,29.79l.27-.11A268.64,268.64,0,0,1,200.1,57l-.25.1a297.51,297.51,0,0,0-14-27.26l0,0Z"/><path class="cls-10" d="M210.2,24.08l.14.23c-2.18.48-6.71,1.46-23.37,3.54,0-.07,0-.17-.05-.25,21.34-3.15,21.34-3.15,23.28-3.52Z"/><path class="cls-10" d="M211.46,25.49l.14.09c.43,7.91-1,16-9.41,31.76l-.32-.21c5.11-9.76,10.06-20.25,9.59-31.64Z"/><path class="cls-10" d="M182.87,103.28l.26-.07c.88,4.46,2.2,11.21.5,16.18l-.19,0c.67-2.7,1.58-6.39-.61-16.14Z"/><path class="cls-10" d="M199.29,86.75a1.74,1.74,0,0,0,.19.26c-5.66,5.09-6.38,5.72-15.25,13.32l-.15-.17c5-4.49,10.2-8.86,15.21-13.41Z"/><path class="cls-10" d="M184.35,102.08c0-.06.05-.13.09-.26,6,1.47,17.16,4.21,22.92,7.27l-.19.19c-4.48-1.94-8.7-3.77-22.84-7.16l0,0Z"/><path class="cls-10" d="M183.75,120.59l.13-.12c2,.9,2.66,1.29,3,2.07l-.27.11c-.32-.72-.74-1.07-2.9-2l0,0Z"/><path class="cls-10" d="M206.4,110.23s-.84,1.1-22.1,9.68l0-.11c16.61-7,16.61-7,22.07-9.57Z"/><path class="cls-10" d="M218.7,95.31l.13,0a70.64,70.64,0,0,1-9.39,12.7l-.14,0a73.56,73.56,0,0,0,9.4-12.71Z"/><path class="cls-10" d="M202.06,87a2.74,2.74,0,0,0,.25-.22c5,8.33,7.39,14.23,6,21.53l-.21.12c.68-5.37.66-10.36-6.11-21.4l0,0Z"/><path class="cls-10" d="M193.91,3.19a44.47,44.47,0,0,1,15,7.88l-.09-.05-.08,0a25.47,25.47,0,0,1-2.86-2.12c-1.83-1.36-5.4-3.45-12-5.67Z"/><path class="cls-10" d="M188.89,2.78l-.14-.06a92.08,92.08,0,0,1,19.66,8.37l.15.15a93.13,93.13,0,0,0-19.65-8.45Z"/><path class="cls-10" d="M213,25.58a.44.44,0,0,0,.06-.16,101.59,101.59,0,0,1,13.34,15.13l-.07.15A105.4,105.4,0,0,0,213,25.6v0Z"/><path class="cls-10" d="M212.29,25.85l.15,0c2.28,4.86,6.1,13,7.1,27.64l-.16,0c-1-8.71-1.95-16.94-7.09-27.64Z"/><path class="cls-10" d="M218.53,57.83l.21.21c-2.72,5.91-5.81,12.62-16,25.53l-.24-.21c8.06-10.37,12.11-16.81,16.07-25.53Z"/><path class="cls-10" d="M227.1,77.8a.91.91,0,0,0,.14.07,73,73,0,0,1-6.05,13.49.61.61,0,0,0-.17-.07A79.11,79.11,0,0,0,227.1,77.8Z"/><path class="cls-10" d="M202.85,86.05c.06-.13.09-.23.12-.31,7.36,2.61,11.22,4.14,16.12,6.86a3.62,3.62,0,0,0-.2.33c-3.24-1.78-6-3.32-16.06-6.84l0,0Z"/><path class="cls-10" d="M226.63,76c0,.09,0,.21,0,.3-4.37,2.11-9.16,4.21-23.48,8.58V84.6c14.86-4.89,16.77-5.52,23.5-8.6Z"/><path class="cls-10" d="M227,43.69a2.36,2.36,0,0,0,.2.31,43.11,43.11,0,0,1-6.42,10.61,2.59,2.59,0,0,0-.19-.33c3.12-4.2,4.29-5.77,6.41-10.59Z"/><path class="cls-10" d="M220.61,58a1.5,1.5,0,0,0,.17-.23,67.86,67.86,0,0,1,6.79,15.81,1.64,1.64,0,0,0-.21.24A67,67,0,0,0,220.58,58l0,0Z"/><path class="cls-10" d="M206.21,111l.07.06c-4.25,3.45-9.54,7.74-17.85,11.12A66.62,66.62,0,0,0,206.21,111Z"/><path class="cls-10" d="M228.12,28.88c4.37,7.33,5.23,9.27,7.74,17.34-2.6-8.23-3.47-10.17-7.74-17.34Z"/><path class="cls-10" d="M221.26,105.2l-.27.29c-1,.8-2.5,2-12.07,4,.07-.09.09-.22.21-.26a20.66,20.66,0,0,1,2.21-.47c2.45-.53,8.34-1.93,9.92-3.55Z"/><path class="cls-10" d="M214.75,111.21l-.53.42a59.73,59.73,0,0,1-11.95,7.17c2.41-1.31,4.91-2.47,7.25-3.9,1.64-1,3.7-2.53,5.23-3.69Z"/><path class="cls-10" d="M207.8,110.49l.25-.19c-.31,2.34-.68,5.24-6.4,8.66l-.32.14c2.61-1.67,6.17-3.95,6.43-8.58l0,0Z"/><path class="cls-10" d="M211.83,13.23l-.13-.14c4.16,2.84,9.34,6.38,14,12.37l.11.15a56,56,0,0,0-14-12.36v0Z"/><path class="cls-10" d="M211.65,13.47c.11,0,11.29,8.16,15.65,26.87l-.12-.05c-2-7.16-4.7-17-15.53-26.82Z"/><path class="cls-10" d="M227.38,27.82c1.89,2.72,3.58,7.29.89,13.66-.08-.15-.1-.19-.18-.32,1.21-3.34,2.72-7.49-.71-13.34Z"/><path class="cls-10" d="M188.29,1.75l.49.1,2.15.5-2.64-.6Z"/><path class="cls-10" d="M179.56.63l.43,0c4.3.32,6.42.77,7.32,1.56-.1,0-.21-.05-.31-.09a1.7,1.7,0,0,1-.34-.26,6.67,6.67,0,0,0-2-.64,38.11,38.11,0,0,0-5.13-.6Z"/><path class="cls-10" d="M187.81,2.37l-.28-.08c2.33.12,3.32.19,4.25.3l.39.11c-.87-.11-1.7-.18-4.34-.32Z"/><path class="cls-10" d="M236.88,50.82c1,6.59,2.43,16.55-2.27,30.88,2.11-7.34,4.72-16.48,2.27-30.88Z"/><path class="cls-10" d="M228.85,76.48a2.48,2.48,0,0,0,.11-.33c2.28,2.12,4.07,3.79,4.8,6.83,0,.12-.09.24-.14.36-.64-2.07-1.1-3.56-4.79-6.81l0,0Z"/><path class="cls-10" d="M186.84,122.9l.25-.09c.39.29,1.11.83-2.16,1.36l-.8.11-.41,0c2.55-.34,4.05-.71,3.11-1.4l0,0Z"/><path class="cls-10" d="M199.32,120.14l.28-.11a40.89,40.89,0,0,1-5.72,2.16l-.46.13a43.49,43.49,0,0,0,5.86-2.16l0,0Z"/><path class="cls-10" d="M200,119.71s-2.63,1.12-12.52,3a2.77,2.77,0,0,1,.26-.1c4.08-1,8.24-1.62,12.26-2.86Z"/><path class="cls-10" d="M228.08,44.72l.14,0c1.84,9.53,2.35,16.22.31,28.45l-.14,0c1.57-10.7,1.88-17-.31-28.45Z"/><path class="cls-10" d="M228.83,43.12a2,2,0,0,0-.07-.33c4.2,2,5.67,2.92,7.31,5l.09.39c-1.54-1.84-2.56-2.75-7.32-5v0Z"/><path class="cls-10" d="M236.59,49.94c0,.09,2.56,9.87-7.44,24.17l-.07-.26c3.38-5.21,8.49-13.08,7.51-23.91Z"/><path class="cls-10" d="M116.4,45c-.28,1-.82,3-1,4,.31-1.34.65-2.66,1-4Z"/><path class="cls-10" d="M169.7,124.49h-.11c1.18.12,2.82.26,4.95.31h-.11c-1.59,0-3.17-.14-4.73-.3Z"/><path class="cls-10" d="M126.69,100.46l0,0c.12.12,3,3.58,3,3.6l0,0c-1-1.14-2-2.32-2.92-3.53Z"/><path class="cls-10" d="M176,.53c-1.06,0-2,0-2.56,0,.85,0,1.7,0,2.56,0Z"/><path class="cls-10" d="M155.31,4.26a14.86,14.86,0,0,0-2.2,1v0c.3,0,4.18-1.55,4.32-1.64h0a18.28,18.28,0,0,0-2.1.68Z"/><path class="cls-10" d="M131.55,20.86a5.5,5.5,0,0,1,2-1.68c.53.1-1.69,2.65-2.59,3.26-.38.26-.57.26-.52,0a5,5,0,0,1,1.1-1.6Z"/><path class="cls-10" d="M146.84,116.19c-1-.67-1.38-1.07-1.22-1.13h0c.66,0,4,2.16,3.75,2.37a6.91,6.91,0,0,1-2.57-1.24Z"/><path class="cls-10" d="M126,49.92c.2-1.11.82-2.26,1.77-2.31,1.49,0,1.35,3.12.12,4.32-.89.87-2,.41-2-1.29a5,5,0,0,1,.08-.72Z"/><path class="cls-10" d="M131,79.16c-.32-1.57.35-2.3,1.1-2.32,2,.14,2.64,3.53,1.63,4.39-.78.67-2.32,0-2.73-2.07Z"/><path class="cls-10" d="M173.55,124.72a13.36,13.36,0,0,1-1.64-.18c1.17.06,2.32.24,3.49.27-.2,0-1,0-1.85-.09Z"/><path class="cls-10" d="M142,102.67c-.62-1-.51-1.79.27-1.81,1.68.1,3.31,2.75,2.53,3.45-.47.41-1.88-.1-2.8-1.64Z"/><path class="cls-10" d="M145,19.07a3.54,3.54,0,0,1,2.34-1.63c1.07,0,.46,1.48-.5,2.44s-2.28,1.14-2.31.37a2.31,2.31,0,0,1,.47-1.18Z"/><path class="cls-10" d="M163.57,3.76a6,6,0,0,1,2-.71c.07,0,.22,0,0,.2-.7.65-2.91,1.66-2.88,1.23,0-.14.35-.41.92-.72Z"/><path class="cls-10" d="M168.9,123.39c-.65-.27-.88-.46-.78-.52h.09a7.33,7.33,0,0,1,2.44,1,5.59,5.59,0,0,1-1.75-.48Z"/><path class="cls-10" d="M155.3,57a2.34,2.34,0,0,1,2.35-2.43c2.47,0,2.84,3,1.48,4.3A2.27,2.27,0,0,1,155.3,57Z"/><path class="cls-10" d="M163.78,110.25a1,1,0,0,1,1-1.5c1.72,0,2.54,2,1.8,2.71s-2.31.26-2.82-1.21Z"/><path class="cls-10" d="M160,82.1a2,2,0,0,1,2.06-2.3A2.32,2.32,0,1,1,160,82.1Z"/><path class="cls-10" d="M169.94,13.19a1.74,1.74,0,0,1,1.68-1.3,1.32,1.32,0,0,1,.84,2.34c-.84.86-2.58.62-2.58-.62a1.59,1.59,0,0,1,.06-.42Z"/><path class="cls-10" d="M180.67,101.36a2,2,0,0,1,2.1-1.67c2.16.07,2.09,2.21,1.06,3.11-1.22,1.08-3.33.51-3.18-1.25a1.23,1.23,0,0,1,0-.19Z"/><path class="cls-10" d="M176,.53a1,1,0,0,1,.31,0h0s0,0-.09,0l-.22,0Z"/><path class="cls-10" d="M176.58,124.65a1.58,1.58,0,0,1,.59-.22c.1,0,.09,0,.05.08a2.15,2.15,0,0,1-.9.27s0,0,0,0l.24-.12Z"/><path class="cls-10" d="M182.94,27.71a1.66,1.66,0,0,1,1.8-1.7c2.17.06,2.84,2.4,1.82,3.4a2.23,2.23,0,0,1-3.62-1.7Z"/><path class="cls-10" d="M178.44,1.62c-.18-.17-.35-.37-.11-.38.5,0,1.61.67,1.36.88s-.69,0-1.25-.5Z"/><path class="cls-10" d="M182.36,120.24a2,2,0,0,1,1.51-.88c.63,0,.63.52,0,1.13s-1.77.9-1.75.33a1.15,1.15,0,0,1,.25-.58Z"/><path class="cls-10" d="M198.66,59.29a2.19,2.19,0,0,1,2.13-2.44c2.46.06,2.82,3.31,1.48,4.47s-3.59.45-3.61-2Z"/><path class="cls-10" d="M199.07,85.31a2.48,2.48,0,0,1,2.38-2.24c2.23.06,2,2.69.83,3.78s-3.25.74-3.25-1.11a2.46,2.46,0,0,1,0-.43Z"/><path class="cls-10" d="M191,9.5c-.16-.24-.63-1,.17-1,1.34,0,3,1.85,2.42,2.33s-1.76-.07-2.59-1.29Z"/><path class="cls-10" d="M186.36,122.76a8.89,8.89,0,0,1,2-.65c.06,0,.12,0,.06.08a10.13,10.13,0,0,1-3.28,1.15v0s.1-.1,1.24-.56Z"/><path class="cls-10" d="M217.8,55.64c0-1.27.57-2.12,1.49-2.15,1.78,0,2.46,3.36,1.29,4.5-1,1-2.75.14-2.78-2.35Z"/><path class="cls-10" d="M210.05,23.8c-.55-1.1-.25-1.59.3-1.6,1.37,0,3.4,2.77,2.59,3.52-.52.48-2-.19-2.89-1.92Z"/><path class="cls-10" d="M186.9,2.31a11.48,11.48,0,0,1-1.46-.51l0,0c.5,0,3.58.88,3.62,1.14a9.53,9.53,0,0,1-2.18-.61Z"/><path class="cls-10" d="M206.92,109.56a4.08,4.08,0,0,1,2.32-1.55c.67,0,.35.85-.71,1.87s-2.34,1.5-2.36,1a2.42,2.42,0,0,1,.75-1.27Z"/><path class="cls-10" d="M218.71,93.29c.55-1.19,1.38-2,2.13-2,1.25,0,.4,2.41-.75,3.5-.91.87-1.77.77-1.74-.19a3.35,3.35,0,0,1,.36-1.28Z"/><path class="cls-10" d="M226.75,75.28c.21-1,.74-2.06,1.57-2.12,1.34,0,1,3.28-.13,4.4-.64.63-1.58.48-1.58-1.17a5,5,0,0,1,.14-1.11Z"/><path class="cls-10" d="M226.44,42.2c-.23-.92-.23-1.92.47-2,1.2,0,2.59,3.48,1.74,4.36-.5.52-1.67-.27-2.21-2.39Z"/><path class="cls-10" d="M209.47,12c-.67-.52-1.42-1.16-1.17-1.2.69,0,3.91,2.44,3.67,2.72-.08.09-.7-.12-2.5-1.52Z"/><path class="cls-10" d="M200.45,119.5a17.81,17.81,0,0,1,2.18-.93,24.42,24.42,0,0,1-4.26,1.91,11.46,11.46,0,0,1,2.08-1Z"/><path class="cls-10" d="M233.43,83.84c.47-1.3.9-2.14,1.12-2.19.41.09-1,4.14-1.57,4.47-.15.09-.16-.23,0-.84s.31-1,.45-1.44Z"/><path class="cls-10" d="M192,2.66c-.74-.2-1.5-.35-2.24-.57,1,.18,3.82,1,4.62,1.24,0,0,0,0-.31-.08L192,2.66Z"/><path class="cls-10" d="M236.23,48.47a11.24,11.24,0,0,1-.41-2.3,23.91,23.91,0,0,1,1.11,4.7,11.67,11.67,0,0,1-.7-2.4Z"/><path class="cls-10" d="M226.65,26.78c-.4-.57-.82-1.13-1.21-1.7h0l.69.91,2,2.93c-.52-.7-1-1.43-1.49-2.14Z"/><path class="cls-11" d="M198.35,121l-.21.1a60.4,60.4,0,0,0,11.78-5.77l.47-.31a59.38,59.38,0,0,1-12,6Z"/><path class="cls-11" d="M214.36,112.19l.39-.3a25.7,25.7,0,0,0,4-3.86l-.26.23c-.56.52-1.22,1.3-1.75,1.86a23.77,23.77,0,0,1-2.4,2.07Z"/><path class="cls-11" d="M198.75,120.8c7.52-3.39,11.34-5.42,18.93-12v0c-6.4,5.42-9.91,8-18.92,12Z"/><path class="cls-11" d="M220.62,18.71l-.34-.33L220,18.1A64.41,64.41,0,0,0,193.24,2.59c10,3.73,17.88,6.68,27.38,16.12Z"/><path class="cls-11" d="M223.93,22.35l-.27-.32c-.5-.5-1.17-1.17-1.71-1.62.08.09.16.19.25.28.51.5,1.25,1.12,1.73,1.66Z"/><path class="cls-11" d="M234.18,47.72a1.48,1.48,0,0,1,.13.21c-.33-5.22-.8-12.37-7.1-21.34l-.39-.54c3,4.56,7.1,10.8,7.34,21.64l0,0Z"/><path class="cls-11" d="M193.29,4.59l.26.13c.23-.65.3-.82-.11-1.4a4.51,4.51,0,0,0-1.64-1.08l-.37-.1a4.08,4.08,0,0,1,1.77,1.17,1.14,1.14,0,0,1,.06,1.26l0,0Z"/><path class="cls-11" d="M219.67,18.33C213.35,12.54,206.59,7,193.42,2.66c8.38,3,16.14,6.17,26.25,15.67Z"/><path class="cls-11" d="M220.26,19.12c0-.05-6-6.09-25.65-13.74a13.21,13.21,0,0,0,3.14,1.32c13.39,5.4,19.78,10.32,22.51,12.42Z"/><path class="cls-11" d="M197.72,121.14a22.43,22.43,0,0,0,8.75-6.43,1.56,1.56,0,0,0-.28.16,12.34,12.34,0,0,0-1.56,1.74,22.46,22.46,0,0,1-6.91,4.53Z"/><path class="cls-11" d="M221.08,105.49c8.57-9.29,12.4-16.06,15.78-27.86.11-.46.22-.93.32-1.39a61,61,0,0,1-16.1,29.25Z"/><path class="cls-11" d="M238.64,61.07c0-.16,0-.33,0-.49a18.38,18.38,0,0,0-3.55-9.8,1.09,1.09,0,0,0,0,.36,15.08,15.08,0,0,0,1.45,2.39,16.71,16.71,0,0,1,2.1,7.54Z"/><path class="cls-11" d="M229.69,69.45a1.63,1.63,0,0,0,.11.17c2-5,3.83-9.74,4.42-17.71a1.21,1.21,0,0,1-.15-.22,54.84,54.84,0,0,1-4.4,17.74l0,0Z"/><path class="cls-11" d="M230.06,71c0,.15,0,.29,0,.35,5.37-2.45,8.18-4.21,8.59-7,0-.15,0-.29,0-.44-.44,2.07-1.31,3.79-8.59,7v0Z"/><path class="cls-11" d="M183.44,124.45a70.41,70.41,0,0,0,21.69-9.35l0-.11c-4.57,2.74-12.23,7.32-21.72,9.45Z"/><path class="cls-11" d="M218.88,31.28l.17.24c3.08-3.68,4.44-6.47,2.8-10.66l-.26-.27c1.23,3.49,1.14,6-2.74,10.65l0,0Z"/><path class="cls-11" d="M233.88,47.41l.1.08c-1.17-6.36-2.79-15.07-11.16-25.75l-.11-.09c3.8,5.17,9,12.24,11.15,25.75Z"/><path class="cls-11" d="M233.27,48.4c0-.52-3.7-6.63-13.5-14.93a1.41,1.41,0,0,1,0,.21c5.07,4.58,9.44,8.53,13.51,14.72Z"/><path class="cls-11" d="M208.43,113.17l-.16.17a67.25,67.25,0,0,0,10-5.33l.24-.25a67.87,67.87,0,0,1-10,5.39l0,0Z"/><path class="cls-11" d="M220.59,105.74c.11-.08,11-10,8.64-32.06l-.13.13c.73,10.44.59,20-8.51,31.93Z"/><path class="cls-11" d="M219.68,106.56s4.31-4.33-3.35-12.62a3.71,3.71,0,0,1-.23.32c3.18,3.62,5.85,7.29,3.58,12.3Z"/><path class="cls-11" d="M176.4,0a7.39,7.39,0,0,0,.85,0h-.38a3.85,3.85,0,0,1-.48,0Z"/><path class="cls-11" d="M190.72,1.94A136.08,136.08,0,0,0,176.54,0c12.71,1.64,12.71,1.64,14.18,1.91Z"/><path class="cls-11" d="M189.84,1.64l.25.06A52.61,52.61,0,0,0,180,.13l-.5,0A52.65,52.65,0,0,1,189.8,1.63Z"/><path class="cls-11" d="M180.32,125.19l.63,0a55.13,55.13,0,0,0,14.12-2.92,56,56,0,0,1-14.75,3Z"/><path class="cls-11" d="M182.68,124.65l-.24,0A109.49,109.49,0,0,0,195.39,122l.34-.12a111.14,111.14,0,0,1-13,2.75Z"/><path class="cls-11" d="M192.74,119l-.12.13c5.81-1.9,8.91-3.05,12.91-4.64l.22-.21c-4.68,1.85-6.95,2.69-13,4.7l0,0Z"/><path class="cls-11" d="M208,112.63c.06,0,5.74-4.68,7.3-17.65l-.21.12c-.91,5.76-1.7,10.74-7.09,17.53Z"/><path class="cls-11" d="M183.1,124.46a16.34,16.34,0,0,0,7.54-4.09,1.52,1.52,0,0,0-.2.06,15.2,15.2,0,0,0-1.92,1.58,19.76,19.76,0,0,1-5.42,2.45Z"/><path class="cls-11" d="M176.27,125.34h.44c3.92-.07,4.81-.32,5.15-.53l-.3,0a.56.56,0,0,0-.17.09,8.12,8.12,0,0,1-1.67.26c-.41,0-1.4.11-3.45.13Z"/><path class="cls-11" d="M176,125.34a38.47,38.47,0,0,0,4.76-.4l.25,0a40.13,40.13,0,0,1-5,.45Z"/><path class="cls-11" d="M228.67,69.22l.17-.07c-.35-6.94-.93-18.56-9.45-34.83l-.16.06c4.45,9.07,8.85,19.22,9.44,34.84Z"/><path class="cls-11" d="M216.73,91.28l.07.09a85.55,85.55,0,0,0,11.12-17.52,1.73,1.73,0,0,1-.15-.2,90.87,90.87,0,0,1-11.06,17.61l0,0Z"/><path class="cls-11" d="M214.94,91.55l.17-.13c-.68-4.16-2.51-15.19-16.86-35.64a3.5,3.5,0,0,1-.3.24c7.32,10.75,15.06,23.37,17,35.53Z"/><path class="cls-11" d="M227.64,70.89l.09-.3c-6.52-5.29-14.88-9.93-28.86-16l-.07.3c12.13,5.65,20.89,9.73,28.84,16Z"/><path class="cls-11" d="M183.71,28.17l.33,0h0C183.15,23.41,180.39,9,177.47,2h-.1c.74,2,3,7.94,6.34,26.15Z"/><path class="cls-11" d="M191.89,4.46A94.92,94.92,0,0,0,176.78.07a103.26,103.26,0,0,1,15.11,4.39Z"/><path class="cls-11" d="M192.31,4.75c-.23-.16-.24-.16-2.26-.61-4.1-.9-8.21-1.7-12.31-2.61l0,.08c4.84,1.11,9.71,2,14.54,3.14Z"/><path class="cls-11" d="M176.21,125.34c2.78-.27,5.92-.58,13.69-4.91l0-.06c-4,2.18-8.56,4.66-13.65,5Z"/><path class="cls-11" d="M217,30.23l.12,0c-5.38-9.4-11.2-17.14-22.14-24.33,7.31,5.14,14,10.52,22,24.36Z"/><path class="cls-11" d="M185.49,28.63l.21.18c7.15-8,13.1-16.41,8.29-23.15l-.27-.11c3.08,4.8,2.85,10.56-8.27,23.05l0,0Z"/><path class="cls-11" d="M198.4,52.34a2.26,2.26,0,0,1,.17.26c8.37-6.42,14.81-12.1,19-19-.1-.12-.15-.17-.25-.31-3,4.6-6.74,9.52-19,19l0,.05Z"/><path class="cls-11" d="M216.81,32.33c-.05-.1-.1-.24-.14-.34-6.2-.47-13.18-1-30.33-1.87l0,.35c7.47.39,20,1.06,30.44,1.86Z"/><path class="cls-11" d="M176,125.34h0Z"/><path class="cls-11" d="M176,125.34h0c1.91,0,2.7-.6,2.34-1.78a.41.41,0,0,1-.11.07c0,.39,0,1-.29,1.27a3.19,3.19,0,0,1-1.94.44Z"/><path class="cls-11" d="M178.85,122.89a.19.19,0,0,1,0,.07c3.77-1,11.22-3,11.29-3l.16-.17c-3.81,1-7.63,2.06-11.43,3.13Z"/><path class="cls-11" d="M214.1,92.59c0-.08.11-.18.15-.26-5.69-3.93-12.7-7.38-25.88-12.73,0,.09-.08.2-.11.29,14.93,6.46,19,8.2,25.84,12.7Z"/><path class="cls-11" d="M192.82,118.46c5.9-4.33,13.05-10.47,21.34-23.22l-.19-.09c-3.71,5.57-9.91,14.88-21.16,23.31Z"/><path class="cls-11" d="M191.13,119.07l.25-.16c-1.43-3-3.81-5-10.63-9a.94.94,0,0,1-.16.23c6.84,4.09,9.21,6.11,10.54,9Z"/><path class="cls-11" d="M180.89,108.41l.06.19c21.57-8.74,29.32-12.68,32.63-14.37a1.63,1.63,0,0,1,0-.31c-9.92,4.94-14.3,6.77-32.74,14.46l0,0Z"/><path class="cls-11" d="M182.5,28.82l.17-.18c-11.39-10.85-13.76-13.1-16.48-18l-.17.11c3.14,5.57,7.22,9.57,16.48,18.05Z"/><path class="cls-11" d="M182.1,30a1.84,1.84,0,0,1,0-.33c-13.74-2.23-20-3.25-29.73-5.25,0,.09-.1.22-.15.31,10,2,15.79,3,29.85,5.27Z"/><path class="cls-11" d="M187,76.65l.28.12A215.67,215.67,0,0,0,196,56.25a2.32,2.32,0,0,1-.36-.16c-2.65,7-4.11,10.83-8.65,20.55Z"/><path class="cls-11" d="M195.41,51.68l.26-.13c-2.44-5.19-3.66-7.8-10.2-19.52l-.24.1c8.33,15.75,8.33,15.75,10.18,19.55Z"/><path class="cls-11" d="M149.69,53.14a1.4,1.4,0,0,0,.09.17c10.87-7.38,22-14.41,32.87-21.8a3.15,3.15,0,0,1-.22-.29c-10.92,7.3-22.17,14.11-32.77,21.88l0,0Z"/><path class="cls-11" d="M150,54.48v.24c5.42.07,5.42.07,44.34-.61,0-.12,0-.29,0-.41-14.77.25-29.54.47-44.31.75v0Z"/><path class="cls-11" d="M174.07,0l-.32,0,2.62,0h-.08l-2.2,0Z"/><path class="cls-11" d="M161.33,120.34l.19.11c1.23-2.65,4.28-5.21,16.22-10.45a1.33,1.33,0,0,1-.1-.24c-9.24,4.11-15.19,7.31-16.34,10.56l0,0Z"/><path class="cls-11" d="M178.25,122.46h.13c.43-1.8,1.08-4.52,1.06-11.71a1.32,1.32,0,0,1-.28,0c0,3.35,0,8.4-.91,11.7Z"/><path class="cls-11" d="M174.91,125.29c-4.25-.52-8.38-2.28-12-3.83a39.43,39.43,0,0,0,12,3.83Z"/><path class="cls-11" d="M175.28,125.31h.13a1.62,1.62,0,0,1-.72-.28c.16-.35.27-.58,2.7-1.57v-.09a19.14,19.14,0,0,0-2.06.94,2.52,2.52,0,0,0-.74.64c.16.27.16.28.68.35Z"/><path class="cls-11" d="M177.44,123.1l0-.08c-5.08-.84-10.21-1.42-15.31-2.16.2.14.2.14,2,.4,4.42.65,8.86,1.19,13.28,1.84Z"/><path class="cls-11" d="M152.27,22.59l.13.12c4.62-4.67,6.72-6.8,12-11.75a.45.45,0,0,1-.13-.11c-4,3.69-7.39,6.89-12.06,11.72l0,0Z"/><path class="cls-11" d="M177.76,108.46l.11-.18c-12.4-7.31-25.38-13.62-37.54-21.37l0,.21c4.28,2.85,5.29,3.52,11.1,6.83,8.71,5,17.63,9.56,26.36,14.51Z"/><path class="cls-11" d="M179.56,107.56h.15c2.75-9.85,5.79-24.63,6.13-26.28l-.38-.05c-1.43,6.92-2.37,11.5-5.93,26.32Z"/><path class="cls-11" d="M184,77.85a4.05,4.05,0,0,1,.21-.35c-25.53-15.34-25.53-15.34-34.42-21.68a3.35,3.35,0,0,1-.2.37c8.48,6,8.48,6,34.41,21.66Z"/><path class="cls-11" d="M140.09,85.45a2.09,2.09,0,0,1,.08.23c28.73-4.26,28.73-4.26,43.57-6.24a2.66,2.66,0,0,1,0-.39c-20,2.63-32,4.22-43.63,6.35v0Z"/><path class="cls-11" d="M177.24,1l.08,0-.07-.6-.44-.35-.07,0,.44.36,0,.57Z"/><path class="cls-11" d="M164.75,2.46l-.17.08C176,.31,176,.31,176.49.1v0h-.08l0,.06c-.2.08-.2.08-11.62,2.35Z"/><path class="cls-11" d="M166.92,8.85A.61.61,0,0,1,167,9c6.6-4.23,8.39-5.62,9.91-7.11l-.08-.07c-1.46,1.35-2.33,2.17-9.89,7v0Z"/><path class="cls-11" d="M164.82,9.17,165,9c-1.52-1.84-3.09-3.74-1.51-6-.3.13-1.22.72-.73,3.05a8.57,8.57,0,0,0,2,3.09Z"/><path class="cls-11" d="M164.52,2.57l-.18.09,12.3-1.12a.94.94,0,0,0,0-.09c-4,.37-8,.71-12.06,1.11Z"/><path class="cls-11" d="M159.89,119.85c-4.91-4-14-11.54-20.59-31.72h-.16c2.91,9.18,8.23,22.46,20.75,31.71Z"/><path class="cls-11" d="M122.59,64.88c0,.09,0,.22,0,.31,6.86-3.61,11.39-5.6,23.17-9.61,0-.18,0-.22-.06-.41-11.45,3.9-16.64,6.07-23.16,9.66v0Z"/><path class="cls-11" d="M138.63,83.76l.15.08c1.92-9.78,3.12-14.62,8.21-26.78a2,2,0,0,1-.32-.17c-5.2,12.44-6.64,18.1-8.08,26.86Z"/><path class="cls-11" d="M147.59,52.26l.26,0c.11-11.4.35-16.26,2.59-26.08l-.29,0c-1.91,8.38-2.69,13.85-2.56,26.09Z"/><path class="cls-11" d="M146,53.52a4.05,4.05,0,0,1,.21-.35c-6.45-5.27-11.71-9.81-15.71-16.28a2.78,2.78,0,0,1-.23.31c3,4.55,5.84,8.37,15.73,16.32Z"/><path class="cls-11" d="M165.69,124.16l.29.06c-2-.68-3.58-1.22-4.37-2.92l-.27-.13c.62,1.12,1.06,1.93,4.31,3Z"/><path class="cls-11" d="M159.77,120a113.3,113.3,0,0,1-19.08-13.17l0,.11A104,104,0,0,0,159.77,120Z"/><path class="cls-11" d="M138.37,103.89l.2.12c-1.25-5.56-1.61-8.39-.33-16.12a1.81,1.81,0,0,1-.29-.19c-1,6.71-1.13,10.16.39,16.17l0,0Z"/><path class="cls-11" d="M136.77,84.5c0-.06.06-.15.09-.22-5.79-5.81-10-10-14.34-17a2.43,2.43,0,0,1-.1.28c2.83,4.33,5.75,8.8,14.35,16.92Z"/><path class="cls-11" d="M164.45,2.23l.25-.07c1.22-.43,2.81-1.13,4.07-1.45a27.82,27.82,0,0,1,3.75-.57,21.18,21.18,0,0,0-8.07,2.09Z"/><path class="cls-11" d="M150.9,22.52l.22-.08c1.29-6.08,2.9-13.65,11.42-19-.09,0-9,3.39-11.64,19.13Z"/><path class="cls-11" d="M150.66,6.19l-.24.13c3.14-1,5.61-1.77,12.22-3.34l.24-.12c-6.51,1.54-8.95,2.28-12.19,3.31l0,0Z"/><path class="cls-11" d="M131.32,34.72l0,.25A195.55,195.55,0,0,1,149,25.28a1.5,1.5,0,0,1,0-.3,189.89,189.89,0,0,0-17.68,9.7v0Z"/><path class="cls-11" d="M149.74,23.36l.25-.27c-5-6.11-6.8-10.68-1.07-16a8.34,8.34,0,0,0-3.81,7.38c.18,3.53,3,6.87,4.63,8.86Z"/><path class="cls-11" d="M123.3,28.77c1-1.43,2.36-3.34,3.45-4.72l.11-.15c-1,1.26-2.25,2.93-3.14,4.23l-.42.64Z"/><path class="cls-11" d="M128,22.46v0l.26-.31v0a3.88,3.88,0,0,1-.26.31Z"/><path class="cls-11" d="M164.56,123.93c-6.08-1.89-15.27-4.74-24.31-16.76l-.19,0c5.18,6.51,11.33,13.16,24.49,16.8Z"/><path class="cls-11" d="M164.84,124c-8.63-2.4-10.68-3-18-6.62,0,0,5.88,3.7,18,6.62Z"/><path class="cls-11" d="M115.7,45.53c1.1-2.44,2.8-4.79,12.59-8.93l.1-.36c-7.13,3.08-11.24,5.4-12.57,8.88l-.12.41Z"/><path class="cls-11" d="M121.57,63.2l.12,0c1-7.29,2-14.19,7.09-25.18l-.19-.08c-2.72,6.21-5.81,13.24-7,25.21Z"/><path class="cls-11" d="M128.92,35.06c.1-.16.12-.2.22-.34-2.25-3.62-3.78-6.78-1.35-11.66-.89,1.05-3.47,5,1.13,12Z"/><path class="cls-11" d="M130,33.91l.24-.13c1.53-6.44,4.09-17.22,17.7-26.18-.14.05-13.88,6.86-17.94,26.31Z"/><path class="cls-11" d="M137.45,103.72c-5.4-7.68-12.8-18.2-15.56-35.51l-.17.06a75.61,75.61,0,0,0,15.73,35.45Z"/><path class="cls-11" d="M144,115.63l.22.12c-3.42-3.43-4.31-5-5-9.1-.1-.08-.16-.12-.28-.23.7,4,1.45,5.64,5,9.19l0,0Z"/><path class="cls-11" d="M117.34,84.77c3,6.45,7,11.52,20.09,19.84a.92.92,0,0,0-.09-.23,19.55,19.55,0,0,0-3.1-2c-12.67-8.22-15.64-14.86-17.06-18,0,.15.11.3.16.44Z"/><path class="cls-11" d="M113.89,54.18c0,2.47-.07,5.55,6.42,10.89,0-.17,0-.22,0-.4-3.76-3.29-6.84-6.38-6.4-10.93l-.06.44Z"/><path class="cls-11" d="M115.28,78.25c-.37-2.67-.79-5.7,5.18-11.39,0-.17,0-.22-.09-.41-2.77,2.8-6.23,6.27-5.2,11.37,0,.15.07.29.11.43Z"/><path class="cls-11" d="M176,125.34h0Z"/><path class="cls-11" d="M175.53,125.33c-.89,0-3.47-.2-8.37-.86.6.12,5.19.72,8.37.86Z"/><path class="cls-11" d="M155.23,121.81a63.82,63.82,0,0,0,10.72,2.5c-9.11-2-9.11-2-11.13-2.65l.41.15Z"/><path class="cls-11" d="M172.73,125.26a29.69,29.69,0,0,1-5.64-.73l-.36-.07a23.71,23.71,0,0,0,5.57.77l.43,0Z"/><path class="cls-11" d="M121.43,93.48a62.47,62.47,0,0,0,21.7,21.9,21.14,21.14,0,0,0-3.84-2.58A61.43,61.43,0,0,1,121,92.66c.15.28.3.55.46.82Z"/><path class="cls-11" d="M149.75,119.58a16.51,16.51,0,0,1-4.09-2.54l-.33-.19a16.52,16.52,0,0,0,4,2.55l.39.18Z"/><path class="cls-11" d="M136.41,111.22a41.19,41.19,0,0,0,7.45,4.71l-.27-.19c-.71-.45-1.73-.94-2.47-1.34a38.17,38.17,0,0,1-5.08-3.47l.37.29Z"/><path class="cls-11" d="M174.39,0a4.92,4.92,0,0,0-.71,0l1.14,0Z"/><path class="cls-11" d="M162.52,1.46C157.44,2.72,154.75,3.53,150.4,6c1.68-.76,3.23-1.77,5-2.41A47.7,47.7,0,0,1,163,1.35l-.51.11Z"/><path class="cls-11" d="M151.54,5.67l-.1.06c5.31-2.17,11.32-4.64,20.46-5.54l.16,0a64.76,64.76,0,0,0-20.51,5.49Z"/><path class="cls-11" d="M149.81,5.73a1.82,1.82,0,0,0-.6.45c-.07.1,0,.29,0,.39l.35-.18a.61.61,0,0,1,0-.46,1.82,1.82,0,0,1,.56-.37l-.37.17Z"/><path class="cls-11" d="M130.56,19.54,129,21.29l1.91-2.13-.36.38Z"/><path class="cls-11" d="M129.66,20.76l-.06.08A69.21,69.21,0,0,1,147.53,7.61a.48.48,0,0,0,.11-.09,69.32,69.32,0,0,0-18,13.22v0Z"/><path class="cls-11" d="M221.1,20.07c1,1.1,1.69,1.72,1.84,1.7.09-.32-2.77-3.4-3.25-3.51h0c0,.11.44.72,1.43,1.8Z"/><path class="cls-11" d="M219,107.25c-1.43,1.45-1.36,1.57-1.3,1.58.39,0,3.58-3.16,3.38-3.37h0c-.1,0-.51.21-2.06,1.8Z"/><path class="cls-11" d="M196.23,121.7c-1.89.7-1.89.7-1.95.74a25.81,25.81,0,0,0,4.46-1.62v0a20.73,20.73,0,0,0-2.51.9Z"/><path class="cls-11" d="M191.05,2l2.41.66a31.24,31.24,0,0,0-4.6-1.25l.66.18,1.53.41Z"/><path class="cls-11" d="M233.49,50.08c.4,1.75,1.08,2.49,1.42,2,.52-.77-.24-4.64-1.22-4.72-.59.09-.48,1.53-.2,2.74Z"/><path class="cls-11" d="M206.18,113.92c-1.06.91-1.18,1.26-.94,1.29.77.08,3.93-2.34,3.55-2.74,0,0-.08,0-.14,0a5.83,5.83,0,0,0-2.47,1.49Z"/><path class="cls-11" d="M227.48,72c-.12,1.88.79,2.59,1.62,1.85,1.17-1,1.39-4.61,0-4.7-.82,0-1.48,1.23-1.59,2.85Z"/><path class="cls-11" d="M216.78,32.28c.89,2.09,2.56,2.63,2.92,1.66s-1-3.69-2.49-3.75c-.77,0-.94.87-.43,2.09Z"/><path class="cls-11" d="M213.78,93.29c-.6,1.64.2,2.33,1.29,1.82,1.59-.74,2.57-3.58,1.38-4a1.1,1.1,0,0,0-.33-.06,3,3,0,0,0-2.34,2.24Z"/><path class="cls-11" d="M192.72,5c1.53.93,2.27,1,2.25.79,0-.43-2.51-1.75-3.35-1.79-.09,0-.25,0,.11.33a10,10,0,0,0,1,.67Z"/><path class="cls-11" d="M181.45,124.8c-.48.1-1,.14-1.44.27a18.11,18.11,0,0,0,3.48-.65h0l-2,.39Z"/><path class="cls-11" d="M190.52,119.54c-.66.56-.84.93-.46.95.93.05,3.27-1.58,2.84-2a.41.41,0,0,0-.24-.06,4.11,4.11,0,0,0-2.14,1.1Z"/><path class="cls-11" d="M176,125.34h0Z"/><path class="cls-11" d="M194.34,53.9a2.36,2.36,0,0,0,4,1.8c1.08-1.16.76-4.17-1.81-4.31a2.18,2.18,0,0,0-2.18,2.51Z"/><path class="cls-11" d="M176.33,0l.35.07a1.21,1.21,0,0,0,.33.05A2.7,2.7,0,0,0,176,0h0l.34,0Z"/><path class="cls-11" d="M183.71,78.94a2.33,2.33,0,0,0,4,1.73c1.33-1.17,1.09-4-1.27-4.14h-.2a2.41,2.41,0,0,0-2.5,2.42Z"/><path class="cls-11" d="M182.12,30.33A2.29,2.29,0,0,0,186,31.61a2.25,2.25,0,0,0-1.94-3.46h0a1.82,1.82,0,0,0-1.92,2.18Z"/><path class="cls-11" d="M177.41,123.18c-.16.57.34.71.85.43s.87-1,.33-1.13l-.2,0a1,1,0,0,0-1,.73Z"/><path class="cls-11" d="M176.61,1.44a.77.77,0,0,0,.76.58h0c.52,0,.52-.45.15-.8a.92.92,0,0,0-.58-.26c-.42,0-.34.43-.33.48Z"/><path class="cls-11" d="M177.57,109.27c0,1.56,1.9,2,2.91,1a1.51,1.51,0,0,0-1.06-2.67,1.71,1.71,0,0,0-1.85,1.72Z"/><path class="cls-11" d="M164.28,10c-.45,1.05.47,1.35,1.32,1,1.16-.43,1.85-2,1-2.4a1.19,1.19,0,0,0-.4-.08,2.41,2.41,0,0,0-2,1.44Z"/><path class="cls-11" d="M175.7,125.34H176a8.54,8.54,0,0,1-1.05-.07l-.21,0h0a9.61,9.61,0,0,0,1,.08Z"/><path class="cls-11" d="M145.74,54.76a2.06,2.06,0,0,0,3.45,1.87c1.22-1.12,1.33-4.27-1.17-4.42a2.41,2.41,0,0,0-2.28,2.55Z"/><path class="cls-11" d="M149.16,24.35c-.63,1.63.63,2.15,1.78,1.62,1.54-.7,2.28-3.07,1.09-3.52a1.44,1.44,0,0,0-.44-.07,2.87,2.87,0,0,0-2.43,2Z"/><path class="cls-11" d="M160.76,120.85c1.11.67,2.23,1,2.18.72a5.82,5.82,0,0,0-3-1.73c-.27,0-.28.16,0,.41a4.6,4.6,0,0,0,.82.6Z"/><path class="cls-11" d="M136.92,86.2c.71,2,2.73,2.52,3.28,1.23s-.38-3.77-2.26-3.82c-1.3.08-1.44,1.4-1,2.59Z"/><path class="cls-11" d="M163.2,2.71c-.92.41-1.24.68-1.08.73A9.34,9.34,0,0,0,165.42,2h-.06a8.44,8.44,0,0,0-2.16.69Z"/><path class="cls-11" d="M138.09,105.6c1.16,1.42,2.52,2,2.6,1.28s-1.77-3.16-3-3.21c-.56,0-.61.69.41,1.93Z"/><path class="cls-11" d="M128.51,35.91c-.66,1.7,0,2.5.91,2,1.47-.69,2.54-3.85,1.44-4.23a.61.61,0,0,0-.22,0c-.76,0-1.63.93-2.13,2.22Z"/><path class="cls-11" d="M173.77.05c-1.1.06-1.91.14-2,.16C173.15.16,174.56,0,176,0c-.74,0-1.48,0-2.21.05Z"/><path class="cls-11" d="M166.48,124.41c1.14.23,2.19.38,2.31.38s-4-.85-4.27-.86a12.57,12.57,0,0,0,2,.48Z"/><path class="cls-11" d="M120.31,65.83c.13,2.22,1.22,2.9,1.86,2.16.92-1,.57-4.78-.78-4.82-.85.06-1.15,1.38-1.08,2.66Z"/><path class="cls-11" d="M149.05,6.67a5.85,5.85,0,0,0-1.58,1,18.34,18.34,0,0,0,4.17-2.14l0,0a13.72,13.72,0,0,0-2.56,1.12Z"/><path class="cls-11" d="M144.8,116.53a9,9,0,0,0,2.27,1.14,20.89,20.89,0,0,0-4-2.46h0c-.05.14.88.79,1.77,1.32Z"/><path class="cls-11" d="M128,22.4a13.28,13.28,0,0,0-1.38,1.84,26.8,26.8,0,0,0,3.09-3.66h0A14.76,14.76,0,0,0,128,22.4Z"/><path class="cls-12" d="M176,125.34h0Z"/><path class="cls-13" d="M116.68,46.81l-.11.18c1.25-7.13,2.16-10.55,6.73-18.22l.42-.64c-4.44,7.36-5.62,10.5-7,18.66l0,0Z"/><path class="cls-14" d="M128,22.46a3.88,3.88,0,0,0,.26-.31c.33-.11.73-.25,6.27-.49l-.23.3a41.9,41.9,0,0,0-6.3.5Z"/><path class="cls-15" d="M116.12,48.18c0,.12-.07.23-.1.35a4.29,4.29,0,0,1-.32-3l.12-.41a4.26,4.26,0,0,0,.31,3v0Z"/><path class="cls-16" d="M117.34,84.77c0-.14-.11-.29-.16-.44-.24-.81-.6-1.88-.77-2.7.37,1,.56,2.12.93,3.14Z"/><path class="cls-17" d="M113.89,54.18l.06-.44a9.5,9.5,0,0,1,1.85-4.16,1.32,1.32,0,0,1-.06.39,13.31,13.31,0,0,1-1,1.65,8.45,8.45,0,0,0-.83,2.56Z"/><path class="cls-18" d="M115.77,79.51l.09.33-.58-1.59c0-.14-.07-.28-.11-.43l.59,1.64v.05Z"/><path class="cls-19" d="M175.91,125.34h0Z"/><path class="cls-20" d="M155.23,121.81l-.41-.15c-.49-.19-1.15-.44-1.64-.66.68.27,1.36.56,2,.81Z"/><path class="cls-21" d="M175.42,125.34h.36c-1.28,0-1.63,0-3.05-.08l-.43,0c1.35.07,1.63.08,3.07.11Z"/><path class="cls-22" d="M121.43,93.48c-.16-.27-.31-.54-.46-.82a51,51,0,0,1-4.19-10.11l.07.12c.52,1.22,1,2.91,1.42,4.16a50.52,50.52,0,0,0,3.16,6.65Z"/><path class="cls-23" d="M151.71,120.4l.31.13c-.69-.28-1.6-.65-2.27-1l-.39-.18c.69.3,1.61.7,2.31,1l0,0Z"/><path class="cls-24" d="M136.41,111.22l-.37-.29a18.47,18.47,0,0,1-4.54-5.29c.09.09.19.16.27.25a16.63,16.63,0,0,1,1.12,1.74,18.15,18.15,0,0,0,3.52,3.59Z"/><path class="cls-25" d="M174.39,0h.88l-.88,0Z"/><path class="cls-26" d="M162.52,1.46l.51-.11A63.58,63.58,0,0,1,173.76,0a65.27,65.27,0,0,0-11.24,1.42Z"/><path class="cls-27" d="M149.81,5.73l.37-.17a24.46,24.46,0,0,1,5.5-1.25,2.41,2.41,0,0,1-.33.15,10,10,0,0,1-1.22.2,25.09,25.09,0,0,0-4.32,1.07Z"/><path class="cls-28" d="M130.56,19.54l.36-.38c3-2.88,9.35-8.88,23.68-14.32a30.31,30.31,0,0,1-3.48,1.44,83.75,83.75,0,0,0-9.57,4.8c-5.78,3.54-8.49,5.86-11,8.46Z"/><path class="cls-29" d="M157.62,3.57l-.18.05C162,1.74,165,.64,173,.07h.24c-5.39.45-9.28.77-15.62,3.5Z"/><path class="cls-30" d="M156.51,4.33c.33-.15.5-.23,10.67-.65,0,0-.05.11-.13.11-3.51.22-7,.32-10.54.54Z"/><path class="cls-31" d="M173.68,125.3h.1A63.67,63.67,0,0,1,155,121.65l-.08,0a63.47,63.47,0,0,0,18.73,3.68Z"/><path class="cls-32" d="M150.72,119.89a54.45,54.45,0,0,1-18.16-13.37c1.22.64,2.27,2.28,3.23,3.27a53.9,53.9,0,0,0,14.93,10.1Z"/><path class="cls-33" d="M152.73,120.72c-.44-.18-.5-.21-.7-.47a1,1,0,0,1-.13-.67c0-.36.66-.74,1.15-1l.3.17c-.7.45-1,.64-1.12,1.06s.16.64.5,1Z"/><path class="cls-34" d="M115.73,78.23a60,60,0,0,1,.06-26.94c-1.3,7.63-2.54,14.84-.06,26.94Z"/><path class="cls-35" d="M117.23,47c0-.06,2.86-10.12,16.42-23.73v.12C127.17,30.2,121.84,36.27,117.23,47Z"/><path class="cls-36" d="M135.11,51.86c0,.1,0,.2,0,.3-3-.28-13.1-1.32-18.14-2.81L117,49h0c3.22.89,7.22,1.65,18.1,2.88v0Z"/><path class="cls-37" d="M151.85,117.62l.07.08a97.29,97.29,0,0,1-19.24-11.56l-.14-.21a97.65,97.65,0,0,0,19.3,11.68Z"/><path class="cls-38" d="M151.69,105.3a2.12,2.12,0,0,0,.11.21c-7.81,0-19.87-.46-20-.47l-.26-.3c2.07.1,5.55.26,20.11.54v0Z"/><path class="cls-39" d="M129.58,103.11a63.35,63.35,0,0,1-12.53-20.32v-.1a65.18,65.18,0,0,0,12.53,20.41Z"/><path class="cls-40" d="M131,104.1c-.07-.06-5.66-7.17,11.25-21,0,.08.11.18.16.26C136.15,89,128.39,96,131,104.1Z"/><path class="cls-41" d="M116.26,79.5c0-.1-3.08-9.93,18.83-26.24a2.29,2.29,0,0,0,.08.28c-7.88,6.28-18.68,14.88-18.91,26Z"/><path class="cls-42" d="M141.86,81.84c0,.08,0,.18,0,.26-8.83-.1-22.37-.86-25.25-1.33l-.12-.4c2.36.35,6.26.75,25.33,1.44v0Z"/><path class="cls-43" d="M224.56,102.22c.86-1.42,1.6-2.64.71-4.82.08-.11.16-.21.23-.32a4.57,4.57,0,0,1-.67,4.81l-.27.33Z"/><path class="cls-44" d="M176,125.34h0Z"/><path class="cls-45" d="M174.38,125.32c-12.42-.35-17.59-4.25-20.08-6.12a1.76,1.76,0,0,1,.2.09,19.7,19.7,0,0,1,2,1.49,17.66,17.66,0,0,0,4.89,2.35c5,1.54,6.62,1.81,12.95,2.19Z"/><path class="cls-46" d="M176.18,125.34a74.39,74.39,0,0,0,8.88-1,78.08,78.08,0,0,1-8.88,1Z"/><path class="cls-47" d="M136.23,50.05l-.25.18c-1.94-6.37-4.88-16-1.39-26.81l.25-.16C132.7,31,132.25,37.85,136.27,50l0,0Z"/><path class="cls-48" d="M136.7,20h-.11c3.58-4.33,8-9.73,17.58-14.77h.1A52.5,52.5,0,0,0,136.7,20Z"/><path class="cls-49" d="M153.66,18.81l-.2.16c-1.74-3.13-5-9,1.67-14l.3-.12c-2.49,2.07-6.65,5.55-1.74,14l0,0Z"/><path class="cls-50" d="M136.26,21.79l.16-.23c2.36-.33,4.59-.64,16.32-1.59a2.38,2.38,0,0,0-.13.29c-8.93.72-11.84,1-16.35,1.53Z"/><path class="cls-51" d="M153.12,117.74c-.05,0-3.81-2.82-.54-11.22.12.1.16.12.28.21-1.5,4.08-2.24,6.85.26,11Z"/><path class="cls-52" d="M175.35,125.33h.12c-4.5-.36-9.42-1.09-20.1-6l-.07-.1c6.37,2.89,12.7,5.54,20,6.07Z"/><path class="cls-53" d="M172.7,124.47l.07,0c-9-2.45-13.84-4.14-17.71-5.49l-.2-.16c3.84,1.35,8.63,3,17.83,5.59Z"/><path class="cls-54" d="M143.06,79.75l-.15,0a102,102,0,0,1-6-25.12l.3-.09a112.13,112.13,0,0,0,5.87,25.17Z"/><path class="cls-55" d="M137.86,49.94l-.28-.12a126.24,126.24,0,0,1,15.35-28.18l.13.06c-6.46,9.8-10.06,15.5-15.2,28.24Z"/><path class="cls-56" d="M171.91,57.49l-.18.1c-14.68-22-16.65-32.18-17.4-36l.3-.16c2,9,4.78,16,17.33,36l-.05,0Z"/><path class="cls-57" d="M170.66,59.12c0,.12,0,.26,0,.38-10.88-2-21.51-4.07-32-6.63,0-.13.07-.29.09-.41,5.51,1.31,13.06,3.11,32,6.61v0Z"/><path class="cls-58" d="M155.46,18.33l-.16,0A67.34,67.34,0,0,1,166.81,4.56l.08,0a70,70,0,0,0-11.43,13.75Z"/><path class="cls-59" d="M155.93,19.74l.07-.29c8-1.81,16.1-3.44,24.13-5.25,0,.08.06.18.08.25-8.09,1.79-16.2,3.45-24.28,5.29Z"/><path class="cls-60" d="M145.33,80.9c-.05-.07-.11-.18-.17-.25,3-2.8,8.68-8,25.72-19.63l.17.27c-20.21,14.58-20.21,14.58-25.72,19.61Z"/><path class="cls-61" d="M172.61,124.27c-2-1.13-8.13-4.6-18.16-17.14l.2-.09c3,3.68,11,13.44,18,17.23Z"/><path class="cls-62" d="M152.39,103.67h-.12a92.76,92.76,0,0,1-8-19.3,1.45,1.45,0,0,0,.3,0,103.69,103.69,0,0,0,7.83,19.33Z"/><path class="cls-63" d="M175,84.79c0,.06,0,.14,0,.19-2.34-.13-9.47-.51-29.15-2.51,0-.24,0-.24,0-.39,7.41.75,13.84,1.38,29.21,2.67v0Z"/><path class="cls-64" d="M173.85,112.32l0,.11c-1.52-.46-6.14-1.87-18.79-6.24,0-.11,0-.14,0-.27,2.32.8,2.32.8,18.87,6.37v0Z"/><path class="cls-65" d="M175.53,111.45h-.25c.19-4.07.33-7,1.69-24.07l.39,0c-.89,10.83-1.43,17.37-1.83,24Z"/><path class="cls-66" d="M154.22,104.51l-.19-.18c3-3.73,7.14-8.18,21.23-18,.05.07.12.17.18.24-10.78,7.89-16.2,11.86-21.22,17.93Z"/><path class="cls-67" d="M180.25,13.08l-.08.16c-7.75-4.42-10.37-6.36-12.16-9l.19-.12c1.92,2.79,4.43,4.5,12.07,8.93l0,0Z"/><path class="cls-68" d="M175,0h0Z"/><path class="cls-69" d="M167.56,3.4l-.14.09c-.83-.64-3-2.35,3-3.17,1.39-.19,2.88-.25,3.78-.29h.39c-6.74.27-9.22,1.29-7.38,3,.12.11.3.23.42.33l0,0Z"/><path class="cls-70" d="M168.88,3.46s0-.08.07-.09c.56-.22,1.33-.43,1.91-.61,4.88-1.54,6.22-2,6.36-2.55a2.2,2.2,0,0,0-.63-.19c.52,0,.56.07.74.26-.32.51-1.14.92-8.45,3.18Z"/><polygon class="cls-71" points="176 125.34 175.99 125.34 176.01 125.34 176 125.34 176 125.34"/><path class="cls-72" d="M175.91,125.34c-.37,0-1.29-.08-1.3-.08a4.12,4.12,0,0,1-1.17-.43c.23.07.4.26.64.31a14,14,0,0,0,1.83.2Z"/><path class="cls-73" d="M213.94,12.83l.05,0-.37-.28.32.24Z"/><path class="cls-74" d="M177.08,0h0Z"/><path class="cls-75" d="M173,124.32s-3-1.21,1.51-10.21a.88.88,0,0,0,.22.1c-1.57,3.31-3.72,7.85-1.73,10.11Z"/><path class="cls-76" d="M176.2,125.34h-.14a2.18,2.18,0,0,0,.44,0l0,0a18.92,18.92,0,0,0-2.56-.48l-.09,0c2.43.39,2.67.45,2.77.56a1.67,1.67,0,0,1-.38.06Z"/><path class="cls-77" d="M182.08,12.64l-.26-.08c.64-4,1.81-11.51-4.62-12.48,3.22.33,6.68,2.77,4.88,12.56Z"/><path class="cls-78" d="M176.9,125.3a24.86,24.86,0,0,0,8.13-2.46v0c-3.34,1.39-5,2.08-8.13,2.41Z"/><path class="cls-79" d="M176.81,125.31h-.06c3.88-.77,5-2.84-.68-11.16l.21-.12c4.28,6.43,5.74,10.33.54,11.27Z"/><path class="cls-80" d="M176.77,112.36a.89.89,0,0,0-.08-.17c3-1.46,3-1.46,15.16-7l0,.2c-5,2.37-10.09,4.61-15.11,7Z"/><path class="cls-81" d="M186.51,121.76l-.17.09c-.54-1.81-1.64-3.68-9.75-8.13a1.32,1.32,0,0,0,.12-.2c4.94,2.78,9.41,5.5,9.83,8.23Z"/><path class="cls-82" d="M173.9,57.31a3,3,0,0,0-.41-.08c5.44-24.28,7.27-32.46,7.95-41.76l.2,0c-.61,9.63-2,15.8-7.74,41.79Z"/><path class="cls-83" d="M232.23,90.3c-1.22,1.8-2.18,3.22-6.14,5.82,0-.11.06-.24.16-.33a16,16,0,0,1,2-1.37,15.34,15.34,0,0,0,4.2-4.5l-.18.38Z"/><path class="cls-84" d="M175.08,58l-.24-.22c17.45-19.39,17.45-19.39,22.33-26.85l.22.18C192.82,38.43,188.23,44,175.08,58Z"/><path class="cls-85" d="M193,103.12l-.21.16c-2.94-4.24-5.27-7.6-13.91-16.36a3.58,3.58,0,0,0,.29-.26c5.94,6.1,9.84,10.25,13.86,16.44l0,0Z"/><path class="cls-86" d="M211,88.2s0,.13-.06.18c-10.44-.74-20.84-2-31.26-2.85,0-.12,0-.27,0-.38,12.79,1.09,21.57,1.9,31.31,3l0,0Z"/><path class="cls-87" d="M177.13,82.85l-.31,0c-1.75-9.84-3.31-19.51-3.48-20.58l.43-.06c1.12,6.87,2.29,13.73,3.41,20.6Z"/><path class="cls-88" d="M212.63,62a1.7,1.7,0,0,0,0,.22c-12.33-.39-24.61-1.44-36.92-2.12a4.15,4.15,0,0,0,0-.42c17.26,1,25.88,1.49,36.91,2.28v0Z"/><path class="cls-89" d="M179.55,84.16a3.47,3.47,0,0,0-.18-.33c14.94-8.17,24.21-13.57,33.41-20.41,0,.12.1.27.15.38-8.4,6.09-15.21,10.47-33.38,20.36Z"/><path class="cls-90" d="M196.68,27.86a1.29,1.29,0,0,0-.16.18c-4.53-4.29-9.13-8.51-13.69-12.78l.18-.16c4.56,4.24,9.17,8.45,13.7,12.73l0,0Z"/><path class="cls-91" d="M182.49,12.87l-.23-.14c2.26-4.34,3.76-7.9.78-10.87a4.37,4.37,0,0,1,1.86,4c-.12,2.41-.87,4.19-2.41,7Z"/><path class="cls-92" d="M183.18,13.87l-.06-.19c13.12-2.54,13.12-2.54,16-3.37l.18.17c-1.37.44-4.6,1.45-16.17,3.39Z"/><path class="cls-93" d="M219.16,23.64l-.14,0h0c-6.71-9.3-13.11-15.66-26-20.7,10.21,4.1,17.76,8.81,26.16,20.72Z"/><path class="cls-94" d="M220.45,24.58c-.08-.09-.2-.15-.26-.27a6.16,6.16,0,0,1-.19-2.07c-.16-1.76-1.18-4.67-5.11-8.51a14.6,14.6,0,0,1,5.56,10.85Z"/><path class="cls-95" d="M199.86,9.41a1.51,1.51,0,0,1-.28-.15c-.42-.36-.59-1.13-.85-1.62-1.26-2.4-4.95-4.15-6.73-5A19.61,19.61,0,0,1,196.31,5a10.32,10.32,0,0,1,3.55,4.44Z"/><path class="cls-96" d="M198.3,9.12s0,.05,0,.07a101.69,101.69,0,0,0-14.5-7.26l-.05-.06A97.92,97.92,0,0,1,198.3,9.1v0Z"/><path class="cls-97" d="M213.23,86.3h0l-.25,0a95.76,95.76,0,0,0,1.53-21.43h0a1.55,1.55,0,0,0,.31,0,92.4,92.4,0,0,1-1.59,21.45Z"/><path class="cls-98" d="M189.87,2l.24.07a115.72,115.72,0,0,0-13.3-2h-.18a108.94,108.94,0,0,1,13.2,2l0,0Z"/><path class="cls-99" d="M181.27,1a0,0,0,0,0,0,0c-1.17-.32-2.76-.72-4-.93h-.06c1.21.22,2.82.58,4,.92Z"/><path class="cls-100" d="M190.36,2.14l.3.09c-1.38-.15-3.11-.34-7.49-.7L183,1.44c1.82.15,4.86.4,7.36.68l0,0Z"/><path class="cls-101" d="M218.68,24v.1a132.73,132.73,0,0,0-17-12.71.77.77,0,0,0,0-.15,125,125,0,0,1,17,12.74v0Z"/><path class="cls-102" d="M199.1,28a1.87,1.87,0,0,0-.29-.2c1.66-4.38,3.93-10.37,1.55-16.59,0,0,3.63,4.93-1.26,16.79Z"/><path class="cls-103" d="M216.4,62.17c0-.19,0-.24,0-.42,6.23-1.25,7.7-1.58,12.09-2.72,0,.19,0,.25.05.43-4.42,1.13-5.83,1.46-12.1,2.71Z"/><path class="cls-104" d="M213.86,59.88l-.15.07a148.56,148.56,0,0,0-14.36-28.47l.26-.13A142,142,0,0,1,213.9,59.86l0,0Z"/><path class="cls-105" d="M200.07,29.43l-.09-.26c16.32-2.76,16.32-2.76,19.38-3.57l.22.32c-3.44.87-7.79,1.86-19.51,3.51Z"/><path class="cls-106" d="M215.69,60.27l-.27-.23c5.29-12.27,7.84-21.6,5.22-33,.08.06,5.44,9.71-4.95,33.19Z"/><path class="cls-107" d="M187.42,121.41l-.09,0c2.29-2.49,5.43-5.9,6.09-15.2l.29-.08c-.49,4.26-1.23,10.71-6.27,15.26Z"/><path class="cls-108" d="M195.36,103.33a1.29,1.29,0,0,0-.09-.16c10.29-8.41,10.69-8.73,15.6-13.2a1.76,1.76,0,0,0,.09.2c-3.86,3.57-6.41,5.93-15.6,13.16Z"/><path class="cls-109" d="M210.62,112l-.22.18c-1.3-1.38-3.26-3.46-15.38-7.08a2.09,2.09,0,0,0,.16-.29c4.66,1.43,13.31,4.09,15.48,7.16l0,0Z"/><path class="cls-110" d="M186.19,124.09l-.29.07c.28-.15.75-.31.85-.6.19-.51.19-.52-.23-1.08l.24-.12c.16.21.47.53.39.79-.14.47-.19.52-.92.93Z"/><path class="cls-111" d="M187.54,121.87a9,9,0,0,1,2.66-1A160.29,160.29,0,0,0,209.41,113s-5.65,3.42-21.87,8.83Z"/><path class="cls-112" d="M212.54,111l-.06,0a69.3,69.3,0,0,0,11.21-12.36l.06,0A66,66,0,0,1,212.54,111Z"/><path class="cls-113" d="M211.66,111.25l-.2.13c3.58-5.95,4.9-11.07,1.63-21.09a3.22,3.22,0,0,0,.28-.24c2.51,8.12,3,13.91-1.68,21.19Z"/><path class="cls-114" d="M211.09,10.78l1.52,1.08-2.11-1.48.59.4Z"/><path class="cls-115" d="M212.52,11.88l.18.15C206.36,8,202.19,5.79,192.82,2.77l-.21-.08c8.68,2.78,12.95,4.75,19.88,9.18Z"/><path class="cls-116" d="M233.49,43a1.34,1.34,0,0,0,0,.2,68.13,68.13,0,0,0-11.64-16,1.21,1.21,0,0,0,0-.19c4.75,5.23,7.64,8.54,11.64,15.93v0Z"/><path class="cls-117" d="M229.73,56.39l-.16,0c-.73-7.5-1.63-16.84-8.22-28.9l.16,0a65.18,65.18,0,0,1,8.22,28.9Z"/><path class="cls-118" d="M214.2,86.81,214,86.6c6-7.77,11-14.59,14.93-25.73l.18.24c-2.33,6.17-5,13.17-14.94,25.7Z"/><path class="cls-119" d="M226.46,94.68l-.05-.05a73.77,73.77,0,0,0,6.72-13.45l.05.06a66.34,66.34,0,0,1-6.72,13.44Z"/><path class="cls-120" d="M224.76,95.94l-.17.24c-2.37-2.38-4.1-3.75-10.67-6.85a3.78,3.78,0,0,0,.17-.35c5.73,2.72,8.21,4.18,10.69,6.92l0,0Z"/><path class="cls-121" d="M214.36,88.12a2.46,2.46,0,0,0,0-.37c8.39-2.93,13.59-5,18.75-8.38l-.06.29c-3.32,2.26-6.81,4.32-18.73,8.46Z"/><path class="cls-122" d="M230.67,57.54a1.73,1.73,0,0,0-.14-.34c2.28-4.58,3-6.12,3.71-11,0,0,.82,2.75-3.57,11.3Z"/><path class="cls-123" d="M234,76.93a1.08,1.08,0,0,0-.11.18,48.72,48.72,0,0,0-3.45-16.06,1.27,1.27,0,0,0,.15-.26c1.68,4.84,3.27,9.42,3.43,16.11l0,0Z"/><path class="cls-124" d="M187.75,123.79a66,66,0,0,0,21.1-10,64.53,64.53,0,0,1-21.1,10Z"/><path class="cls-125" d="M216.69,110.29c-1,.64-1.69,1.06-5.28,2,.09-.08.16-.2.28-.25a15.93,15.93,0,0,1,1.54-.43A12.21,12.21,0,0,0,217,110l-.3.27Z"/><path class="cls-126" d="M200.1,120.52c4.28-2,7.29-3.55,10-7.2a3.28,3.28,0,0,0,.31-.2c-1.73,2.2-3.35,4.27-9.84,7.21l-.45.19Z"/><path class="cls-127" d="M216.73,15.09l-1.1-.9-.2-.17.85.69.45.38Z"/><path class="cls-128" d="M233.91,42.75c-1.12-.87-1.07-3.15-1.49-4.51-1.2-3.84-5.21-13.84-16.61-23.82,6.84,6.23,13.87,13.55,18.1,28.33Z"/><path class="cls-129" d="M233.54,37.87a14.49,14.49,0,0,1,1.05,6.07,1.75,1.75,0,0,1-.15-.34,16.4,16.4,0,0,1-.08-2.33,15.19,15.19,0,0,0-1-3.82c.06.14.12.28.19.42Z"/><path class="cls-130" d="M186.31.85a17.7,17.7,0,0,1,4.56,1.28c-.62-.18-1.19-.49-1.81-.66a29.29,29.29,0,0,0-3.17-.69l.42.07Z"/><path class="cls-131" d="M193.85,2.59a20,20,0,0,0-2.36-.28l-.36-.11a19.19,19.19,0,0,1,2.33.28l.39.11Z"/><path class="cls-132" d="M234.62,84.79a6.68,6.68,0,0,0-.32-4.88c0-.12.09-.25.14-.37.62,1.93.93,2.9.33,4.85l-.15.4Z"/><path class="cls-133" d="M181.74,125.08a12.59,12.59,0,0,0,3.72-.71l.36-.08c-.52.26-1.12.48-3.66.75l-.42,0Z"/><path class="cls-134" d="M195.71,122.16a62.33,62.33,0,0,1-9.41,2c3.26-.76,6.6-1.16,9.81-2.16l-.4.13Z"/><path class="cls-135" d="M234.66,76.56c2-10.83,2.58-16.86.27-29.25,1.95,9.71,2.41,16.56-.27,29.25Z"/><path class="cls-136" d="M237,48.26a5.94,5.94,0,0,0-1.86-2.56l-.09-.38c1.42,1.47,1.47,1.53,1.85,2.53,0,.13.07.27.1.41Z"/><path class="cls-137" d="M238.62,64.48c-.61,5.6-1,7.07-3.76,13a1.51,1.51,0,0,1,0-.3,23.24,23.24,0,0,1,1.5-3.2,29.09,29.09,0,0,0,2.27-10.06c0,.19,0,.38,0,.56Z"/><path class="cls-138" d="M116.58,80.54c.2.66.62,2.2.43,2.31-.37-.13-1.68-4.54-1.4-4.73a6.46,6.46,0,0,1,1,2.42Z"/><path class="cls-139" d="M153.13,120.88c.63.26,1.29.47,1.91.78a31.9,31.9,0,0,1-4.48-1.82h0l2.57,1Z"/><path class="cls-140" d="M117,48.94h0c-.47,2.17-1,2.68-1.22,2.35-.43-.77.56-4.68,1.2-4.75.15,0,.45.29,0,2.39Z"/><path class="cls-141" d="M176,125.34c-1.34,0-2.36,0-2.36,0l2.36,0Z"/><path class="cls-142" d="M131.7,104.89c1.09,1.25,1.28,1.71,1.09,1.72-.6,0-3.54-3.23-3.19-3.53,0,0,0,0,.06,0a6.25,6.25,0,0,1,2,1.83Z"/><path class="cls-143" d="M175.13,0c-1,0-1.57,0-2.46.08C172.69.09,174,0,176,0h-.86Z"/><path class="cls-144" d="M156.58,4.3c-1.52.7-2.35,1-2.45.9,0-.32,3.38-1.72,4-1.76h0v0a6.55,6.55,0,0,1-1.6.83Z"/><path class="cls-145" d="M136.27,21.78c-1.37,1.85-2.53,2.13-2.61,1.57-.13-.84,1.94-3.35,3-3.36.61,0,.22.94-.4,1.79Z"/><path class="cls-146" d="M154.35,118.5c1.25.86,1.09,1,1,1-.72.1-3.86-1.8-3.56-2.16a.17.17,0,0,1,.14,0,6.38,6.38,0,0,1,2.46,1.21Z"/><path class="cls-147" d="M138.72,52.24c-.28,2.49-2.37,3.06-3.27,1.86s-.26-4.27,1.71-4.34c.91,0,1.75.79,1.56,2.48Z"/><path class="cls-148" d="M145.75,82.07c.35,2.26-1.54,2.82-2.8,1.85-1.48-1.15-1.57-4,.26-4.19h.2a2.6,2.6,0,0,1,2.34,2.35Z"/><path class="cls-149" d="M176,125.34c-.5,0-.82,0-.82,0h0l.82,0Z"/><path class="cls-150" d="M154.85,105.51c.57,1.4-.35,2-1.51,1.49-1.38-.59-2.47-2.72-1.36-3.23a1.18,1.18,0,0,1,.5-.1,2.84,2.84,0,0,1,2.37,1.84Z"/><path class="cls-151" d="M155.73,20.23c-.87,1.73-2.82,1.94-3.17,1s.77-2.87,2.49-3c1,0,1.25.84.68,2Z"/><path class="cls-152" d="M168.61,3.77c-.91.92-2,1-1.93.58S168,3,168.78,2.93c.48,0,.23.45-.17.84Z"/><path class="cls-153" d="M173.76,124.68c.39.23.4.27.4.29s-1.57-.45-1.58-.65c0,0,0-.06.13-.06a2.7,2.7,0,0,1,1,.42Z"/><path class="cls-154" d="M175.72,59.79a2.6,2.6,0,0,1-4.41,1.81,2.57,2.57,0,0,1,1.84-4.39,2.45,2.45,0,0,1,2.57,2.58Z"/><path class="cls-155" d="M176.85,113a1.55,1.55,0,0,1-2.71.79,1.39,1.39,0,0,1,1.14-2.35,1.44,1.44,0,0,1,1.57,1.56Z"/><path class="cls-156" d="M179.72,85.14c-.1,2.43-3,2.81-4.22,1.51a2.3,2.3,0,0,1,1.86-3.81,2.2,2.2,0,0,1,2.36,2.3Z"/><path class="cls-157" d="M183.24,14.16c.19,1.47-1.57,1.72-2.53,1s-.86-2.46.51-2.6h.17a1.88,1.88,0,0,1,1.85,1.65Z"/><path class="cls-158" d="M195.29,104.55c-.68,1.77-2.83,2.25-3.34,1.1a2.44,2.44,0,0,1,2.29-3c1.29.06,1.37,1,1,1.85Z"/><path class="cls-159" d="M176.38,0a6.44,6.44,0,0,1,1,.08h-.15L176.63,0c-.28,0-.49,0-.64,0h.39Z"/><path class="cls-160" d="M176,125.34c.33,0,.66,0,1,0a7.5,7.5,0,0,1-1,0Z"/><path class="cls-161" d="M200.14,29.67c.39,1.76-1.28,2.4-2.67,1.49s-1.7-3.25-.19-3.63a2.38,2.38,0,0,1,.41-.05,2.69,2.69,0,0,1,2.45,2.19Z"/><path class="cls-162" d="M183,1.45c.69.29.92.5.79.56s-.26.05-1.07-.28A7.71,7.71,0,0,1,181.26,1s0,0,.07,0a6.43,6.43,0,0,1,1.66.49Z"/><path class="cls-163" d="M187,122.22c-.94.55-2.07.89-2,.6a5.11,5.11,0,0,1,2.61-1.43c.38,0,.11.29,0,.37a3.48,3.48,0,0,1-.66.46Z"/><path class="cls-164" d="M216.39,62.59c-.08,1.36-.84,2.28-1.88,2.3h0c-2.19-.09-2.34-3.64-1.09-4.73a1.6,1.6,0,0,1,1.08-.41c1.21,0,2,1.21,1.89,2.84Z"/><path class="cls-165" d="M214.24,88.59c-.71,2.19-2.73,2.65-3.3,1.55s.51-3.82,2.29-3.84h0c1,0,1.44,1,1,2.29Z"/><path class="cls-166" d="M201.09,10.36c.82.79.78,1.2.31,1.21-1,0-3.51-2.12-3.05-2.57a.3.3,0,0,1,.23-.07,5.07,5.07,0,0,1,2.51,1.43Z"/><path class="cls-167" d="M186,124.26a23,23,0,0,1-2.29.41c.09,0,3.93-.91,4.11-.92h0a9.32,9.32,0,0,1-1.84.51Z"/><path class="cls-168" d="M230.92,59.2c0,1.94-.93,2.72-1.7,2-1.1-1-1.13-4.76.33-4.82.79,0,1.37,1.22,1.37,2.83Z"/><path class="cls-169" d="M221.34,25.76c.76,1.26.6,1.85,0,1.71-1.16-.29-3.22-3.38-2.53-3.8a.3.3,0,0,1,.17-.05h0c.6,0,1.61.94,2.34,2.14Z"/><path class="cls-170" d="M191.26,2.24a10.67,10.67,0,0,1,1.84.67l0,0c-.31,0-4.17-1.22-4.3-1.3h0a23.45,23.45,0,0,1,2.47.62Z"/><path class="cls-171" d="M211.17,112.53c-1.25,1-2.32,1.53-2.32,1.24,0-.45,2.76-2.77,3.58-2.84.29,0,0,.43-.61,1-.24.21-.48.42-.65.55Z"/><path class="cls-172" d="M225.76,96.69c-1,1.61-2,2.31-2.14,1.74-.15-.8,1.72-3.77,2.65-3.85.45,0,.24.89-.51,2.11Z"/><path class="cls-173" d="M234.59,79c-.51,1.92-1.21,2.57-1.46,2.17-.45-.71.51-4.56,1.42-4.66.4,0,.42,1.07,0,2.49Z"/><path class="cls-174" d="M234.94,45c.48,1.67.38,2.54,0,2.3-.8-.48-1.9-4.5-1.27-4.68h0c.35,0,.86,1,1.25,2.38Z"/><path class="cls-175" d="M214.35,13.15A15.73,15.73,0,0,1,216,14.5c-.16-.06-3.75-2.83-3.8-2.94a26.47,26.47,0,0,1,2.2,1.59Z"/></g></g></g></g></svg>